<mxfile host="65bd71144e">
    <diagram id="51Ktz9KCiKVIQHnMZtSW" name="Page-1">
        <mxGraphModel dx="1920" dy="560" grid="1" gridSize="10" guides="1" tooltips="1" connect="1" arrows="1" fold="1" page="1" pageScale="1" pageWidth="850" pageHeight="1100" math="0" shadow="0">
            <root>
                <mxCell id="0"/>
                <mxCell id="1" parent="0"/>
                <mxCell id="3" value="Waiting Room" style="shape=process;whiteSpace=wrap;html=1;backgroundOutline=1;" vertex="1" parent="1">
                    <mxGeometry x="220" y="180" width="340" height="180" as="geometry"/>
                </mxCell>
                <mxCell id="13" style="edgeStyle=none;html=1;exitX=1;exitY=1;exitDx=0;exitDy=0;exitPerimeter=0;" edge="1" parent="1" source="4" target="12">
                    <mxGeometry relative="1" as="geometry"/>
                </mxCell>
                <mxCell id="4" value="Organisateur&lt;br&gt;" style="shape=umlActor;verticalLabelPosition=bottom;verticalAlign=top;html=1;outlineConnect=0;" vertex="1" parent="1">
                    <mxGeometry x="45" y="70" width="30" height="60" as="geometry"/>
                </mxCell>
                <mxCell id="16" value="" style="edgeStyle=none;html=1;" edge="1" parent="1" target="15">
                    <mxGeometry relative="1" as="geometry">
                        <mxPoint x="635.5" y="100" as="sourcePoint"/>
                    </mxGeometry>
                </mxCell>
                <mxCell id="17" value="" style="edgeStyle=none;html=1;" edge="1" parent="1" target="15">
                    <mxGeometry relative="1" as="geometry">
                        <mxPoint x="635.5" y="100" as="sourcePoint"/>
                    </mxGeometry>
                </mxCell>
                <mxCell id="18" value="" style="edgeStyle=none;html=1;" edge="1" parent="1" target="15">
                    <mxGeometry relative="1" as="geometry">
                        <mxPoint x="635.5" y="100" as="sourcePoint"/>
                    </mxGeometry>
                </mxCell>
                <mxCell id="19" value="" style="edgeStyle=none;html=1;" edge="1" parent="1" target="15">
                    <mxGeometry relative="1" as="geometry">
                        <mxPoint x="635.5" y="100" as="sourcePoint"/>
                    </mxGeometry>
                </mxCell>
                <mxCell id="26" style="edgeStyle=none;html=1;entryX=-0.003;entryY=0.117;entryDx=0;entryDy=0;entryPerimeter=0;" edge="1" parent="1" source="12" target="3">
                    <mxGeometry relative="1" as="geometry"/>
                </mxCell>
                <mxCell id="12" value="Create Game" style="rounded=1;whiteSpace=wrap;html=1;" vertex="1" parent="1">
                    <mxGeometry x="40" y="170" width="120" height="60" as="geometry"/>
                </mxCell>
                <mxCell id="23" style="edgeStyle=none;html=1;" edge="1" parent="1" source="15" target="3">
                    <mxGeometry relative="1" as="geometry"/>
                </mxCell>
                <mxCell id="15" value="Join Game" style="rounded=1;whiteSpace=wrap;html=1;" vertex="1" parent="1">
                    <mxGeometry x="630" y="160" width="120" height="60" as="geometry"/>
                </mxCell>
                <mxCell id="21" value="Player&lt;br&gt;" style="shape=umlActor;verticalLabelPosition=bottom;verticalAlign=top;html=1;outlineConnect=0;" vertex="1" parent="1">
                    <mxGeometry x="620" y="10" width="30" height="60" as="geometry"/>
                </mxCell>
                <mxCell id="25" value="Url : waiting-page/ACCES-CODE" style="text;html=1;strokeColor=none;fillColor=none;align=center;verticalAlign=middle;whiteSpace=wrap;rounded=0;" vertex="1" parent="1">
                    <mxGeometry x="270" y="180" width="220" height="30" as="geometry"/>
                </mxCell>
                <mxCell id="29" value="" style="endArrow=none;dashed=1;html=1;dashPattern=1 3;strokeWidth=2;" edge="1" parent="1">
                    <mxGeometry width="50" height="50" relative="1" as="geometry">
                        <mxPoint x="190" y="420" as="sourcePoint"/>
                        <mxPoint x="240" y="370" as="targetPoint"/>
                    </mxGeometry>
                </mxCell>
                <mxCell id="30" value="Chat box" style="shape=callout;whiteSpace=wrap;html=1;perimeter=calloutPerimeter;" vertex="1" parent="1">
                    <mxGeometry x="420" y="280" width="100" height="70" as="geometry"/>
                </mxCell>
                <mxCell id="31" value="Player list" style="rounded=1;whiteSpace=wrap;html=1;" vertex="1" parent="1">
                    <mxGeometry x="260" y="285" width="120" height="60" as="geometry"/>
                </mxCell>
                <mxCell id="32" value="Waiting Room" style="shape=process;whiteSpace=wrap;html=1;backgroundOutline=1;" vertex="1" parent="1">
                    <mxGeometry x="-10" y="430" width="340" height="180" as="geometry"/>
                </mxCell>
                <mxCell id="33" value="Shared view" style="text;html=1;strokeColor=none;fillColor=none;align=center;verticalAlign=middle;whiteSpace=wrap;rounded=0;" vertex="1" parent="1">
                    <mxGeometry x="340" y="140" width="60" height="30" as="geometry"/>
                </mxCell>
                <mxCell id="34" value="Organisateur View" style="text;html=1;strokeColor=none;fillColor=none;align=center;verticalAlign=middle;whiteSpace=wrap;rounded=0;" vertex="1" parent="1">
                    <mxGeometry x="40" y="370" width="60" height="30" as="geometry"/>
                </mxCell>
                <mxCell id="36" value="" style="shape=actor;whiteSpace=wrap;html=1;" vertex="1" parent="1">
                    <mxGeometry x="270" y="290" width="20" height="30" as="geometry"/>
                </mxCell>
                <mxCell id="39" value="" style="sketch=0;html=1;dashed=0;whitespace=wrap;fillColor=#2875E2;strokeColor=#ffffff;points=[[0.005,0.63,0],[0.1,0.2,0],[0.9,0.2,0],[0.5,0,0],[0.995,0.63,0],[0.72,0.99,0],[0.5,1,0],[0.28,0.99,0]];verticalLabelPosition=bottom;align=center;verticalAlign=top;shape=mxgraph.kubernetes.icon;prIcon=c_role" vertex="1" parent="1">
                    <mxGeometry x="45" y="550" width="50" height="48" as="geometry"/>
                </mxCell>
                <mxCell id="48" value="" style="whiteSpace=wrap;html=1;align=center;verticalAlign=middle;treeFolding=1;treeMoving=1;newEdgeStyle={&quot;edgeStyle&quot;:&quot;elbowEdgeStyle&quot;,&quot;startArrow&quot;:&quot;none&quot;,&quot;endArrow&quot;:&quot;none&quot;};" vertex="1" parent="1">
                    <mxGeometry x="100" y="660" width="150" height="90" as="geometry"/>
                </mxCell>
                <mxCell id="49" value="" style="edgeStyle=elbowEdgeStyle;elbow=vertical;sourcePerimeterSpacing=0;targetPerimeterSpacing=0;startArrow=none;endArrow=none;rounded=0;curved=0;" edge="1" target="48" parent="1">
                    <mxGeometry relative="1" as="geometry">
                        <mxPoint x="80" y="590" as="sourcePoint"/>
                    </mxGeometry>
                </mxCell>
                <mxCell id="50" value="If game locked" style="text;html=1;strokeColor=none;fillColor=none;align=center;verticalAlign=middle;whiteSpace=wrap;rounded=0;" vertex="1" parent="1">
                    <mxGeometry x="110" y="670" width="60" height="30" as="geometry"/>
                </mxCell>
                <mxCell id="52" value="Start Game" style="rounded=1;whiteSpace=wrap;html=1;fillColor=#60a917;fontColor=#ffffff;strokeColor=#2D7600;" vertex="1" parent="1">
                    <mxGeometry x="130" y="710" width="80" height="30" as="geometry"/>
                </mxCell>
                <mxCell id="54" value="" style="verticalLabelPosition=bottom;html=1;verticalAlign=top;strokeWidth=2;shape=mxgraph.lean_mapping.verbal;pointerEvents=1;" vertex="1" parent="1">
                    <mxGeometry x="220" y="498" width="50" height="100" as="geometry"/>
                </mxCell>
                <mxCell id="59" value="" style="shape=image;verticalLabelPosition=bottom;verticalAlign=top;imageAspect=0;aspect=fixed;image=data:image/png,iVBORw0KGgoAAAANSUhEUgAAAgYAAAIICAYAAAAVNSbQAAAAAXNSR0IArs4c6QAAIABJREFUeF7snXd4HdW1t1/1LsudagwYQnFVcZMxLnIvkEInEEInkITk1uTmuze35KaR3NzclkIC6QEbA8ZItmTLklxky0U2NQkEEoqNK83Y2DrnfM+Sj4IsbOuUObPmzKz5B57HM3vt/Vt7Ru9Ze++1MrBLW4Ec4EJgJnARcAqQCewEngeWA88Ah7U7avZNAVPAFHBQgUKgCqgBzgEGAweBHcDm6LfvFSDkoE1rKgYFMmK4x25JjQLZ0RfiK8A4IOsEZsLANuDfgEftJUmNM6xVU8AUcE2BAuBaQL59Q4AT/R2SH0NPAv8MtAMR13oYcEMGBjoToBT4HnBDNDoQSy/kpXgYuAV4J5YH7B5TwBQwBTymgEQGfgFMiKNfh4B/Bb4BdMTxnN2aoAIGBgkKl8RjEi57BJiYYBtPR5cdJNxmlylgCpgC6aKAwIB8+2S5NN5Lfhg9CNwBvB/vw3Z/fAoYGMSnV7J3D4qGxiqSbOilKFjIPgS7TAFTwBTwugICBXWAREuTuX4NfMr2XCUjYe/PGhj0rpFTdwgU1ALlDjX4p+jehDccas+aMQVMAVMgFQrIHqp6oMShxiVycLPtt3JIzeM0Y2CQOm27tzwwusN2jMPm/hzd1bvL4XatOVPAFDAFnFBATh2sAoqdaCzahiwr/B9wNyCbs+1yWAEDA4cFPU5zA6K0PDpFpl4DBDh2p6h9a9YUMAVMgUQUkOhoM1CUyMO9PNMFB5+x0wrOq2tg4Lym3VvsH6Xlkak103nuV8DDIgcpFtqaNwVMgZgUkB8rawE5mpiqS+BATiv8o8GBsxIbGDirZ/fW+gItwMWpM3FMywIH8jLangOXBDczpoApcFwF5IfQBiDfBX1kKUFyvBgcOCi2gYGDYnZrqg/QClyQmuZP2KpFDlwW3MyZAqbAMQrID6GtgGR0deuSyMGXgX93y6Df7RgYOO9h2WQj6TzPd77pmFqUI4yjbFkhJq3sJlPAFHBOAUnpvv0kWVyds/ThlgQOJMfBD1NpJChtGxg462nJ/f1UNO+3sy3H15osJ0g4z/YcxKeb3W0KmAKJKaAJBV09Fji4HfhRYkOwp7oUMDBwbi7kAb8DznKuyaRaksiBwIGdVkhKRnvYFDAFelHAC1DQHQ4WAMvMa4krYGCQuHbdn8wFXgTOcKY5x1oxOHBMSmvIFDAFjqOAVIaVKOmJisBpiTYvmmVWy35a2zUwSN59ssnmZeC05JtKSQsGBymR1Ro1BQKvgFehoMsxc6PZZgPvqHgFMDCIV7Fj75flgz96GAq6eiunFWRDoi0rJOdve9oUMAWOKiCnD6QcvNciBd39I3sOpFidnBCzKw4FDAziEKvHrbLR8LloPfHEW3HvyVei6ZMtz4F7mpslU8CPCsjepTZAllC9foWAS6PJlrzeV8/0z8AgMVfIkUQ5lnN2Yo+rPSWFl8YDVpVRzQVm2BRIawUkido6l5IXOSVUBzA2ml/BqTZ93Y6BQfzulQphksDj3Pgf9cQTUrK5GjrTKNtlCpgCpkCsCkhBpMYU1T6ItQ+J3ncQuCSaYybRNgLznIFBfK6WWuKSvGhYfI957m7ZFyEvyeue65l1yBQwBbyowEzgkTSFgi4934suK2zyosBe6pOBQezekDTHkv/7I7E/4uk75XilrL1JdUa7TAFTwBQ4kQKzgEfTbPngRGN5C5gQ3R9mHj+BAgYGsU2NsujmFUnk4afrD8BUgwM/udTGYgo4qsAcYHGKqyQ62uEYGtsHTAaeieHeQN5iYNC72/sBTcDw3m9Nyzt+D0wzOEhL31mnTYFUKiBJgh4C5ASW3y45ui1HGV/w28CcGI+BwclVHACsjKYWdkJvr7YhqZxrgFe92kHrlylgCriqwHzgN2m+p6A3wf4cjZjKniu7uilgYHDi6TAQWAGMDsiMeR6QDUaS78AuU8AUCK4CUmvgV4Acy/b7JUe45UeRRQ4MDHqd64OjebbLe73TXzdIwibZaGRw4C+/2mhMgVgVWAj8MiBQ0KWJ/CgSOLCN2FFFLGLw4dflFOAJoCLWN8nJ+6YPKqN/Xi4PvaJWMflZYLbBgZNetbZMgbRQQKDgF4DkanH9+tQ5p7Ho5Z28Gw67bht4GpCNlracChgYHDsFBQqWApUaM3PmoL78aMoYMjPgr9Y/zW//rAYHEjkQOJA1OLtMAVPA/wpcBvxcCwq+OmoYd140lObX93B98zYORaTMgeuXZLOV5dTAp403MPhg7p0KPBatJ+D6jJw5uC8/unQ0hdnZnbYPhUJ8cf3TPKQLB7as4PpMMIOmgOsKKEPBudx50dlkZBz9c7Tszzu5Y+3TWnAg6Z4vD3rBOQODo++gRAoe14KCWYP78oPJoynKOQoFXdehUJgvrntKc1nB9hy4/o02g6aAqwooQ8Ew7rhoKJlRKOga+ZN/3slta5/mfZ3IQeDhwMDgKBRIpECKbLh+HYWCMRTlHL966fuhMPeue4qH9fYcGBy4PivMoCngigKqewq+Oupc7rjo7A9BQdfIH3rxNe7Z8CwqOw6OHlP/GPC2K57wmJGgg4E6FPxw8mgKe0QKes4RgYPPr93OolclJ4fKJbt2Z9jGHBXtzagpkAoF1KGg+/LBiQb4qz+8yr1tz2nBQS1wFfBOKhzg5TaDDAbqywexQEHX5DkcCnPPmu088poaHFgSJC+/ydY3UyB2BSRPgRxJVDl98NWR53LnxR/sKeit27/8wyt8vk1+m6hcAgefAKQAU2CuoIKBKhT03GgY62w7HA5zd8s2lry2J9ZHnL5P0idLbQWryui0staeKeCOApLR8NdaeQr+aeS53HXxOfTYUnDSkcs2g/999o/807YXUTmrcDQt9A3A++64SN9KEMFA9UjijEF9+fGUD04fxDsFjoTD3NnczmOv7433UafulwxhUoBkh1MNWjumgCngigJS+0DSHKtkNPynkedw18XnxgUFXaoYHLgyP/5iJGhgIBkNl2klL6oZVMb9U8opzD7+RsNYXX8kHOH2pq0s3aEGB5JbvBrYGWuf7T5TwBRQVUCS9zysVfsgkUhBT7UEDv7jqRf42tMvaQkpyZ9uAjq0OuCW3SCBwSBA1otU0hzXDCzj/qnJQ0HXxOiIRLh19Rae2CEVRFUuyTE+zpKBqGhvRk2BeBS4GngQyI3nISfulT8wXxt9HjdfODShSEHPPoQjEf59y+/4j9+pZG2XlYwfAnf7HQ6CAgZSJVEKIo1xYrLH28a0AWU8MK2cgiQjBT3thiIRblq1hdo31OBA3k7JEqmWojFeX9j9pkDAFLgymuY4x+1xyx+X74+9kCuHneFoil2Bg69t+R3f04WDzwAhtzV1y14QwKA/0KBVJXHKgD78bFqF41DQNUHkjO8nG9pYsetNt+ZMTztSeESAS+24hNbAza4p4HEFZDe9VElUgYL/ikJBKjQKhSP81fqn+MWfVLIXS+Tg68A/gNZJylSo+kGbfgcDgYJVwMjUynj81if3K+VXMyrJy0puT0Esfb9OFw5kI6JorHZcIhaN7B5TIEAKfJSju+mPTafqggDyRyWVUNA1BImYfnHddn75J5WApfwmEzj4ih/hwM9g0A9YDYxw4V34kIlJ/Ur47Yyx5GZlumb+2vo2Gna/qXWkR+BgtC0ruOZuM2QKnEgByfW/CEj9L5IePZA/KP899kKuGHaGK96RZYW7W9p5+FWV3yQCB18D/h9ofXZTI7NfwaAMWANcnBrZTt7qhL7FLJo5zlUo6OrRNfVtrNSDA8lvIMsKKgiv4WuzaQp4TAHJaPioRuVc+QkkkQK3oKB75OC6+o2s3KOSvVj2GdwrQ/cTHPgRDPoA64ELNV7YcWXFPDp7HNmZ7kUKeo7TA3AgJz9UFv80fG42TQGPKCAZDaUYnOuXlIr/ryr3oaBroBI5uHrFBhr3qmQvlsjB5yRY4hc48BsYSIrPzcB5rr8Zsj2/tJClcyeSLW+J8nWNEPTut7TiWxI5MDhQngNmPjAKyAdHMhpKMTjXPz5HoeACrhh2pqrgAgdTH1/DswcOafRD4EDqKsgSTtpfrk+iFCpWBGwHzkmhjRM2XV5SyJPzJ5IVT67PFHZUts3KhsSGXbbnIIUyW9OmgLYC6lDw/aoLuFIZCv4SOQAufbSZ599TyV4scCAnQZZoT4pk7fsFDPIBKfIzJFlBEnl+VFE+yxdO8gwUdI2hCw7q9Y4ySmbEUbbnIJFZZc+YAr0qIN9vSXO8tNc7U3CDVyIFPYcm373JS5p5/qAKHIh52fypsqTjlJv9AAZyHEey8J3mlCjxtDOiMI+Gyyejt6Pg5L2VWXq97lFGgQM5ymh5DuKZWHavKdC7ArJ8oAMFnRsN9ZcPTiSR5DkYtaSJN94/0ruKqbljYnSvW2paT3Gr6Q4GchxHEuxIDQTXL4GCVZdLPSFvXx6AA9mIONzyHHh7nljv0koBNSiQPxr/M/ZCPuHSkcREvWJwkKhyChtVEu/qh56UvN9STUMlUjCqOJ/6hZe4v9MnQQFl8evGlZuoe2N/gi0k/ZhsSJQ8BxY5SFpKayDgCqgdSXQ7T0GyfpYkSBcvbmLvYZXIgXx25Zv3VLLjcPv5dI0YFADPa+0pKC8uoG5BNRke2WgY66SRXbs3NW7hyZ1qtRX+DFTZnoNYPWb3mQIfUkDWrxeD+6uX6QYFXcq9dyRE1eMt7NJZVhAikXoysjE+ba50BAOpJb5N6/RBZWkRT8ydQJYHjiQmMsuEoG9drVqy+WVggpVsTsR79kzAFfg48FutjIZupDlOlX/fPdzBxCfWsuPQ4VSZOFm7cn5SytRv0TCeiM10A4NSoA04P5HBJvvMuD5FPDpnvGryomTHIM93hCPc0byVx17f60RzibTxR2ASIGmU7TIFTIHeFbgiWhBJpfbB98cePZKYbn8wusu65+D7XLJsPXt0lhXejUZLJdLt+Sud/NwXWAdcoKHqxL4lLJo1lhzFjIZOjvtIOMxnWrax5DWVHOMylBfkyDEgew/sMgVMgeMrIN/oG4AfaVVJ9AMUdEm788Ahpte1ai0rvBWNHDzj9cmeLmAgBZGatWofXNKvlN/MqFKpfZDKCXQ4HOaeNdt55FW1/YB/AKZGT5akcqjWtimQjgrI9/kzwHc1qiTKka8HJo1k1pDBaR0p6On4198VOJDIQYfGnHgTGAf8XsN4rDbTAQykdLJUSZTjbq5fl/Yv5Zc1VeS5WCXRzUG+HwrzubXbWawHB/KCTAdedXPcZssUSAMFPgvcpwUFP500kjlDVE6Cp9w1v3/zXebXb2T/EamB5PolS6iylCpLqp68vA4GA4CV0QQ5rgs4dUAffja9gvws16uXujpWgYN71z3Fw6+oFUWUdbcZBgeuut2MeVsBKcrzLY3lA9nE8JNJI5gz5BRvK5Rk757f/w6XNbSxTwcOJP+OLKW+mOQwUvK4l8FAoKAhmlI3JYM/WaPTBpbxwNRyCrL9DQVdGhgcuD7FzKApcCIFVKHg/uqRzD3Ln5GCnoJv2rWfKxu38E5IUg64fkkeHokceG6flVfBYCCwIpocwnVvTR9Yxk8DBAVdAh8KhfmCbuTgOWCmRQ5cn/Jm0DsKfB74BiAJ3Fy9JFLw4+oRzDvL35GCnqK2vrGXa1e3a8GBREtrvLbPyotgMAiojZbtdfXFEGPTB5XxkynlFAYkUtBT4EOhEF9c9zQP6S0rPAvMBl5x3flm0BTQVUANCiQu+pPqEcwNGBR0uXvdToGDrRwISwJ51y/5QSRLqbK84InLa2Ag8atlQIWGOjWDyrg/wFDwQeTAE3AwyyIHGm+B2VRSQBcKonsKvPYHwU1fLH/lDW5Z8xSHIipwsBGQ+hdqR8S6a+2leSDxK6kUJukjXb9mDOrLjy8dTWGO6/lDXB9rLAZlWeGL657SjhwYHMTiLLsnnRWQb7BAwdc1lg86IwUGBX+ZPwIHt655ioM6cNAKXOaFlPFeAQOBAqlfLXn0Xb9mDu7LjwQKsg0KuovvATiQEJvAgS0ruP5WmEEXFJDvr2w0VNtTcH/0SKJX/hC4oHmvJh59aQd3tj5Nh0rgoDNfjxTJkmRIapcX5oNAwWPAWA0VZg3uyw8nW6TgRNrbhkSNWWk2A6CAfHslT8E3NSIF8hPo/gDvKehtfv3mhVe5t+05LThYDlylCQfaYHAq8KgWFEikQKCgyJYPTvqeyFHGz6/dziK9JEiW56C3L5n9ezopoA4FQTx9EO8EETj43MbnUDnICAIHVwJvx9tvJ+7XBAPVSIFBQXzTxwMZEn8XzZDomZ278Slod5sCf1FAlg/UIgUGBbHPxB88+xJfaX8BnVUFFkXrZByMvcfO3KkFBrpQMCi6p8AiBXHNosOhMHev3caSV9UKL0n6ZKmt4LmEIHEJaTcHWQE1KAj6kcREJp0AwQ+feYmvbFODg4eBGwFX4UADDORIopw+UNloOGNQGT+eMsY2GibylgBSlfHO5m089roaHEjhpSkGBwk60B7TVED2FHxbI82xQIGfax+k0qlyQOG/n/kjX92ulr34t8An5fObynF2b9ttMBAoeELrSGLNwDLunxrc5EVOTaqOcITbmrey9PW9TjUZbztSsnkyIMVI7DIF0kEBVSiQKomzfVoQyQ3nhyMRvtX+B7793J/cMNfThgQu7gfuBFwpCekmGEhGwye1khdJmuOfGBQ4NqkFDm5t2sITO/Y51macDUllMskzbnAQp3B2u+sKqFVJzAR+Fi2d7PqofWYwSHDgFhhI7YM6rTTHQSuI5Nb7GIpEuKlxM7U797tlsqcdwXc55qpWFlJr4GY3LRSQ7+tXgP8HuF6NLS8jo3P5YMaZ8pvMLicUkG/eVzY+y49eVNnmJJGD/wD+ClJ7WMINMJAqifVaBZGkdPKD0yoCUyXRickfTxuSWvyGVW0sf+PNeB5z8t5Xo8DpiVSiTg7M2kprBeTb+g/APwHyw93VS6Dg0ekVVA7q66rdIBiTaOmXNj7DT/+oEqyU05P3AX+XSjhINRj0A1ZplU6+tH8pP59eaVCQ4rdVMPa6hjbqd6nBgbyho7ySZzzFclvz3ldAvqtfBv4ZSPU39kNqCBQ8VlNBxUCDglRNFYkc/M36p/nZyztTZeJk7QocfAv4e0jNScpUTlqZlU3ACA3lLulXwq9mVJGf5XoET2O46jY9AAfyho40OFCfCkHvgHxTvwT8iwYU5GZk8ERNJWMGlgXdDykff0c4zC2rN7Nsp8oPIoGDvwG+kwo4SBUY9AHWAhen3DvHMTCxbzEPzRxHXpbrETyN4XrGpsDB/LpWNu57R6tPBgdayptdUUC+pxLi/TctKHhyRhWjBsjn1y43FJBlhZtWbaJOJ1oqcPDXwHedhoNUgEEpIFWiLnTDMT1tjC8rYvHs8eRmGhRo6B8OR5i3fAOb9hscaOhvNtUUkG+p/IKTKomuX7J8sGxmFaP6GxS4Lb4sK8x/cj2b3jrgtmmxJ3BwW/Q4o2P2nQaDEmATcL5jPYyjoarSQh6fO4Fsg4I4VHP+1nAY5i1v1YQD23PgvFutxRMrYFAQ8NkRCkeY9cRatr3raoLCLtVD0dTJv3LKDU6CQTGwFRjmVOfiaae8pIAn51WTlenkkOLpgd3bXQGBg/krWmnTW1aQ80Rj7CijzcsUKyChSQnnqkQK8jNlT4EtH6TYxzE1L3kOpi1dwzPvHorpfodvksjBdcBvnGjXqb+ihcDTwNlOdCreNkYV5bNi4SQyM5waTrw9sPuPp4DAwYIVqnsOpOBSucGBzc8UKSBQIMsH/56i9k/abF5mBssMCjSkP6HNjkiE8kea2PG+a9mLu/dFIgczgMZkRXHiL2k+IGVxz0q2M4k8P7wgj1WXT8aYIBH1Uv+M7DlYsGKD5oZEg4PUuzmIFuTb+bcGBUF0/cnHHCbC6MVqcCB7wKWWTHMynkkWDHIBSU17ejKdSPTZ4YX5NF5+SaKP23MuKRAJR5ivCweyrDDajjK65HD/m+k6ffA1jaF2bjS00wca0sdsU34QXfBII/sPy494lasS2Jyo5WTAQKDgJeC0RI0n89yIojxWXjbZ/ewhyXQ6wM/KssLCFRvYsO9tLRUMDrSU959dyVMgRxJdvyRPgR1JdF32hAweCUW4WODgiAocSORA8rrIEn/cV6JgIMsHUv72jLgtOvDA6OJ86hZMIsvWDxxQ070m5MzvR+s30rpXDQ4kfbKQ9Bvujdos+UwByWiokrwoLwOW1lRZ8qI0mlCHOsKMeayJPe+7UhSxpzJCJBXAtnglSwQMCoBngaHxGnPi/sqSQp6YP9GgwAkxFdo4EgpzRcMm1u59S8F6p8k/RwsvGRxoeSB97SpCgdU+SNdp8/bhI1Q8toY3j6jAgRi9AHgxHv3iBYOiKH2cG48Rp+4dW1rEY515CuLttlM9sHacUOD9jjDXrNpMyx6VVKIyhJeBCYBKonMnNLQ2XFVAvfbBkukVVFlBJFed7qSxfQcPM2HZWvYdVoEDOT8ptWR+H+uY4vkLKxkNJXnRebE27uR9E8qKWTx7HDmWvMhJWdXaer8jxHWNW2jarQYHsmm22uBAbQqki+Gu0sn/qFElMT8jg8XTyxk7SOrR2ZXOCuw5+D7Vy9ZpwcG70aPbsgWg1ytWMJCKHOu00hxX9y3h4ZljybHaB706NJ1uONgR5sbVW2jctV+r2y8AkwGV+qlagza7MSsgeQqkdLIaFCyaVs64wQYFMXvM4ze+9PYBZi7fqLWssDe6x0oipie9YgEDmZVSJXF4b42l4t8v6VfKb2ZUkWtQkAp51dt870iITzdvZeUbanAg4bVpgOQ7sMsU6FJAyrJK5bp7NAoi9cnO5OGpFbbR0Ifz8cW3DjBnxUb26+w52BVdRpWI6Qmv3sBgALAyeuzBdRdd2r+UX9ZUkmelk13X3k2DAgc3N7fT8MY+N812tyUJumoMDrTk95xdVSgoy85k8fRKRlpBJM9NDKc69My+t1lQ38Y7Iclk7PolR7fHnux7dzIwGAisiCaGcb3nUwf04WfTKsjPlnfULr8rcOBIB7e2bKN+pxocPAfMBORIo13BVUAVCvpmZ7JoWiUjrXSy72fg5t37ubJxC293qMCBnFKQDInH/d6dCAwGAXXRIjSuO2jagDIemFZOgUGB69prGnz3SAe3t2xjhR4cyDHcWQYHmrNA1bZAgdS2v1tj+UCg4KFpFYweIFu67AqCApt27eOqxq28rRM5kI2I04FXemp9PDAQKKiN7mB03TfTB5bxk6nlFBoUuK69FwwaHHjBC4HsgzoU/HZaBWMMCgI3+Va+uotPr9nOe2FJVuj6JRWRZ/csNNcTDAQKlkV3Lrrew5qBZdxvUOC67l4z6BE4kJflQyTtNa2sP44o0AUFn9E4kiiRAoMCR/yYto00vLKLm9eqwYGkIZjXHQ66g0FJNFIgZ7tdv2YM6suPp4yxSIHrynvToEfgwJYVvDk9nOyVHEn8HnCXQYGTslpb8Sqw7E87uHXd0xxRCRzQAswBDki/u8BAiPlHwE3xDsaJ+2cO6suPLh1NYU62E81ZGz5RwODAJ4707jDku/cfmlBgewq8Ozk0erboxdf47MZnteDgf6LHc8NdYCBHtZZrELNAwQ8vHU2RQYHGPPS8TQ+cVrANiZ6fJQl10KAgIdnsoVQroAgHUnRpKtAiYCA/0xuAS1M94J7tzxzclx9ONihwW/d0sydwcEtLOw071ZIgyVHGGZbnIN1mzgn7q7qnQPIUPGynD3wzmVIxkPuf/xN/v+X3KKwqyMGDBQIGFwHbAVcTBhgUpGI6+bdNgQNJgqSYIdGSIPljeqnmKRAoWDStglF2+sAfsylFoxAg+PFzL/PlrX9wGw6OCBMIGHw+enY3RUP8cLO2fOCa1L4yJBkSP9W0VbO2wu+i6ZMlc5hd6aeAPhRMr2BUf8tTkH5Tx/0eCxz84NmX+Eq7lHRx9bpdwEA2Hd7illmDAreU9qcdgYMbmrbSpFd4SZKCSMYwg4P0mmLqUGBpjtNrwniht+FIhPu2v8A3n+m17pGT3f2+gMHjsqbgZKsnamvKwDIenFJOYY6rqxZuDM1suKjAoWjJ5ma9ks1WldFFfztgShUKpCDSkumVjLDaBw64MnhNCBx8vf33fPe5P7s1+IcEDB4DFrphceKAUh68tJyyvBw3zJkNHyvwfkeYq1dtYs2et7RGKdXJJgJvaHXA7MakgOQpkDTHalUSH62pYni/0pg6azeZAj0VOHAkxJ1rtlG7Q6omu3J1goGrSwkTBpTyM4MDV7zrdyNHQhGuWNnGWj04eClawtTgwJuTTaBA8hSo1D4ozcpk6cwqLuprUODN6eH9Xsmm6zvXbHcTCkSU7wkYfAG4z02JDA7cVNvftjrCET5av5HWvW9rDfRP0RKmUufcLu8oIMew/wu4TaMgUll2FktnVHFBX0koa5cpEL8CCpGCrk7eIWAwHJBCCq6mHRw/oJRfXFpOH1tWiH/G2BPHKBAOw4IVrWzc946WMlJToRzYo9UBs3uMAvItexC4RgMK+udk0zBnPGcUF5hbTIGEFDjQEeKOlnbqdrhehl6OK14gYCAL/s3A+IRGkMRD4/uX8oup5fTJtT0HSchojwKRcIR5yzfQtl8NDl6LlinfbQ5RVUCg4GdRKHC9I31zsmieN5FTCvNdt20G/aHAex0hbmtpZ7n7UCACNgIzu1Iiy+bDJRopkS8uLWTR9EoGFOT5w6s2CjUFwuEI83XhQI4wjulZwlRNkOAZVoWCspws1s2vZqB9y4I38xwa8cGOELc2t7N8p+uRAhlBBzAXqO8CA9mkI5R9nUPji6uZC0sKWTKjiv75uXE9ZzebAj0VEDi4sqGN5j1vuZ0xrKsrBgc601LCjl3LB673QCIF6+ZPYkCBfcNcF98nBgUKbm7eSr1e6vf/ixYUi3Qvu1zYxj6UAAAgAElEQVQcXVKQXzyuXx8pKWDpjLH0NThwXXu/GZSMYdfUt7Fq95tacLADGAXYsoI7k0sZCrJZv6Dafti442tfWjkUCnNj4xZW6SVuWx+tB3NM2eUusftF4eBiDfXPLyngyZnjbEOihvg+s2lw4DOHnng4AgUPANdqjLhvTnbn8oFFCjTU94fN98NhPrlqM4273tQa0DPAZOAv6xfdIwZdneoLrAUu1OjlsOICls8eT2muq4ckNIZqNlOsgMDBtfVtrNSNHIy2PQcpc7RqpKCfQIFFClLm3CA0fDgU5ppVm2jerZaoTSrHVgPHlK49HhiIP6TKRyvwEQ3nnFOUz6q5Eymy1Mka8vvOpiwrNOilT5Y9BwIHtqzg7MxShQKLFDjrzCC2diQS4ar6Nlr0ErRJUTg5jfihUMWJwED81AfYBAzTcNrZRfk0zZtIQbbVVdDQ3282JXJQrwsHsufA8hw4M7G68hTY8oEzelorLisQikT4+IqNrNVLzCb1XiqB44YqTgYGIpXk8hQ4OM9l3TrNnVWYx9oFk8jLkkMTdpkCySlwXUMbK/TW8SzPQXLu63pa9UiinT5wxolBbiUShsvqW1m/Vy3nitR5kUMGJ0wX2xsYiP8kfdeaaGY31/05pDCPdQYHruvuR4Oy5+CGlZuoe+OY5TQ3hyoZEitsWSFhyVWhQPYUSPKiwYWWcyVhDwb8QfkGLazbQOs+tRTuUt9FoOCkmxpiAQNxZSHQogUHp+bnsmb+REotQ2LAX6vkhy8lTG9q3MKTOglEZABSW2GcVWWM25eqywcDcrNZNWcCpxZZRsO4PWcPdCrQCQW1rbTqZWeNCQqkr7GCgTocDM7P6UwgYqcV7C1LVoGOSIRbV2/lCffKmPbssrygUrJ5Z7JjCcjzqkcSB+ZmUz97PKdb7YOATDfnhylQsKC2lQ16UCDLBxKtjOlMZDxgoA4Hp+TnsHZ+tUUOnJ+3gWvxSDjCHc1befx112qc99RYXtRJgCRDsuvECkikoCtPQbzfq6R1HZSbTd3s8ZxpUJC0lkFtQPYUzF/eysY0gYJ4IwZdflVdVrDIQVBfL+fHfTgc5u6WbSx5Te2wwIvAJQYHJ/StRAp+Gk1e5DoUDM7LYdnMsZxVIp88u0yB+BWQSMHc2vVs2v9u/A8780RckYIuk4m+bLpwkJfD+gWTKLEkSM5MnQC3InBwT8t2HnlNLc3AH4ApgOQ7sOsDBZShIJsnZoxlaGmR+cQUSEiBMDC/tlWz4mtCUJBoxMAbkQOBg4WTKMmxDIkJzVp76C8KvB8K87m121n8qhocSKKR6YAcabTr6EmoRcCcOPdBOaLd0KI8HppawdkGBY7oGcRGJFIwTxcKYt5oeDz/JBox6GpLXmBJn6xSeElCfRY5COJr5/yYBQ4+v3Y7i/Tg4HmgxuCgEwoelu+q817uvUXJuvpoTZWdPuhdKrvjBApIpEBOHyhvNDxpnoLenJcsGEj7cn5nebQIQ2/2HP/3QXlHNySW5Unk0S5TIHEFBA7uXfcUD7+yK/FGkntS8pbPCDAcqELBuUX5LK6p5PQi6YZdpkD8Cshx6MuWS54CteRFktFQTh8klSjBCTAQ9aQI+aPR0F/8aib5hJxWWD13opU9TVJHexyk/OkX1z3FQ3pw8CwwC3g1YP6QfUu/lWVZjXGfW5zP4mmVdiRRQ3yf2OwIRbhi5UbW7Enqb3IyasiSpORISboik1Ng0AUHS2QTZjIjS/TZQXnZ1M4cxxDbQZyohPZcVIFDoRBfWPe0ZuQgaHCgCgXDivN5eFolZ9iRRPsGJKiAHH++emWbdpVEyY0SU56C3obpJBiILckVulhrfbB/bhZ1M8fZTuLevG7/3qsCAgdfXPe0RQ56VSrpG9Sh4KFplZanIGk3BrcBOdl03crNrNYr0vZM9NizY7nenQaDLjiQHcUqIUHJUrZ0ZhXnlhYHd6bayB1RwODAERlP1ogqFJxXXMBvp1UYFKTczf41IEuPNzRuplGvONtT0ePO+5xUORVg0AUHsrNY4CBVNk6og2Qre2zGWIb1sTPITk6WILYlL/4XdDck+nVZoQsK5PSB698IWT6wSEEQ32jnxnyoI8SnmrayUq8o23ZgGuB4+tZUvpByWuEhLTgYnJfNkulVnFdmkQPnXoVgtiRwcO/ap1j0qtppBb/BQdfpA9mPlMpv0HEn7LDiAh6eVmF7CoL5Ojsy6oMdIW5u2kq9HhS0R483Ow4FIlCqX0qBA9lpvNARb8TZyODcbB6pqeJ8g4M4lbPbeyrggSRIfjnKKFAgPxhUIgVyJHHRdNtoaG944gq81xHiluZ26vUqtG4FZgIpy+WeajAQ9QUOfgNclrgrEn/ylLzszg/BR8pKEm/EnjQFgMOhMHev2c4SvfTJAgeSBCld0yer5imQ5EWPTLcjifYyJ66AQMFtLe0s3+Hokn48HdoSPc6cMihwI2LQNWCBg/uBa1yIUnxI5E44mFbJR/oaHMQzA+3eDysgO5A/07yNR19P6Xt5MunlrLKsK6YbHKhCwdlFeTxaM5bTiuRTZJcpEL8CBzpC3NHSTp3PocBNMBBbkprwh8CNBgfxT0p7wjsKCBzc1byNx/TgQAovXZpGVRm7ah+o5DiR2geP14y1NMfeeYXSricCBXe2tFOrCwWzAVcKurixlNB9EqjCQZ+sTB6aVkH5wLK0m5jWYW8pIAlNbmvayhM7UrL3J5bBSsnmScDOWG5WvEegQHKbSEEk16+zCvM6SycPLrRIgevi+8TggSMd3LV2O0++rvauy/KBa1DgdsSga5pIOcQfaUUOSqNwUGFw4JPXVm8YHZEIt67ewhN6vyKkgtoE4A09FU5qWaDgkehHzfUuDinMo3bWOAYVSN41u0yB+BU40NHBnS3bqdX7AeA6FGiBgdjVh4Op5VQM6hv/TLEnTIFuCoQiET61ajN1eseW/gxUAWpnKU8wIeQnutRPkboPrl9nFORSP3sCAwqkjItdpkD8CggU3NGynbqAQYEmGHTBwY+BGzT2HBxdViinfKDBQfyvjD3RXYFwBK5f2Ua9XvazV4DyVB5fitPjkllM6qZIpUjXr9MLclk1ZwL98g0KXBffJwY9sNFQjiQKVLuyp6Cn29zeY9DTvuw5kGUFgwOfvFBBHsY19W006OVLl1MKozwAB5LRsCUKKq5Ph7OL8mmYM57SXCvD7rr4PjEoRxJv1z19oAoF2hGDrmnkATiwDYk+eafVh3F1fRsr9eDgNWCM1q8MQPYUrANGazhC9hSsWzCJvKxMDfNm0wcKeCBPgWQ0lEib2nlor4BB17KC2oZEWVZYNL2C0QPstIIP3m31IQgcrNr9JhGdnrwKVCjsORAo2ACM0Bi2QEHrwknkZBoUaOjvB5sHQyFubWpnuV5Gw23RBGaqUOAlMJC+SOTg+8BtGnsO5LTCIzUVjOpvcOCHl1x7DAGDA1k+aNWEgvULJ5FrUKA97dPWvtRD+XTTFup3Ola5OF4tpEri1FQURIq3I14DA+mP4P63gHs14KAkM5NHZ1Qysn+fRLS0Z0yBvygg0QLZc6AYOZBlBdmQmOrTCupQYJECe/GSUUDqoNy4eotmlcRngMmAWp7lnvppbz48nj8FDr4JfEEDDnIzMnho6hiqT+mfzFyzZ02BzqUEZTiQDYmy5yBVcGBQYPM8rRWQLKbXr9pMo96JIqmcKonK1EIVx3OgF8GgK3KgBgc5GbB4WjkTBhscpPVb74HOCxxcq39aIRVwYFDggfllXUhcAcleenVDG8173kq8keSelLonkqDMU1DgxaWE7jILtAgcfFEjciBwsGRaBeMG90vO9fZ04BXwCBzISQGnzkSrQsGZhflsXFhNtu0pCPy7lagAkrX0ivqNrNnzdqJNJPuc1DsZC7yZbEOpeN6rEYOusXbBwV+lYvC9tSlw8Nj0CqoGGRz0ppX9+8kVEDi4rkE1CdIOYKQDx6CUoSCPjQsnGRTYC5ewAmHg8roNrN+nBgVS50RODqmFKnoTz+tg0BXV+Abw170NJhX/npORweM15VQONDhIhb5BalPg4PqGNlborWcmmwRJoGB9FDBcd50URJI8BbmWp8B17f1iUN7BBbWtbNj/jtaQXo7m+fAsFHh9KaG742RD4r8Df6PhTdmQ+Oj0coscaIjvM5vhztoKW6h9Q20DsqRPll8r8S4rCBSs1UpeJBkNm+dNJD87y2czwobjlgICBQtrW2nVgwIpeib7fTwNBekEBtJXVTjIy8xgyTSDA7deYj/bkcJLNzduYZleIhX51TI+jqqMUvugWSvN8bnFBZ21DwpzDAr8/F6kcmweiBSkDRSkGxhIf+XL8GXgq6mcRCdq2+BAQ3V/2uwIR7itaStL9Sq3yTqnHJPa2YvCxUAjUKnhifOLC6ibM56SHCnIapcpEL8CnZGCulZa96ktHwgUSE4RT240PJ6i6bDHoGe/JXLweeC++KdI8k8IHDwytZyxdloheTED3sKRcJg7W7bx2GtqGVBfiCZWkY2Jx7sEClZFyzq77q0LSgpZNmusFURyXXn/GOyMFNS1ssGgIC6npiMYdEU6BA6+E9doHbpZNiT+pHo4s4ec4lCL1kxQFZAEK3e3bGfJa/Eu+Tum2O+jqVhlY2L3qwSoB8Y5ZimOhi4qLeKxGVWU5VmVxDhks1u7KWBQkPh0SFcw6IIDSZ2sEjnIzsjggeoRzBoyOHH17UlTAJCUrJ9du51HXlWDA0m0Mh2QNMpyCRQsjyZfcd1HF5cWsWRGJX3zcl23bQb9oYBHoCAtNhoez+PpDAZdcCCpk7+tMZ2zMuDB6pEGBxri+8ymwMHn1m5nsR4cPB+t7HYYWKa1fDC8TxGLp1fSL9+gwGdT3LXh2EbD5KVOdzDoUkByHEiuA9fHIxsefjbJ4CD5qWgtSIW3e9c9xaJXUlXaoFeNJXLQAVzc650puGHCgD78YsoY21OQAm2D0qQkL5IjiYp5CmRTr2w0VMue5ISvXf9D6kSnT9CG5Dj4uhYcPDhpJLNtWSGF7g1G0x6AAxWhJw7ow8+nlFOaa6cPVBzgA6NyDPijKzawfq/a6QPZryNpjj2fp6A3d/sJDGQsfwv8WzTnQW9jd/TfJXLwwKQRzLENiY7qGsTGBA6+sO4pHtaLHLgqe/WAPvzMIgWuau43Y1IQ6UqpfbBX7Ye6LMVJQaS0OZJ4sjngJzDo2nPwd8C/Ghz47dUP1ngOhULc1bKdpa+rHWV0RfDqgWX87NLRtnzgitr+NCIne65t2ESTXpVET5ZOTsbbfgODLjiQo4yy58D1s04SOfhp9QjmnmVHGZOZmPYsvHukg9tatlGvlyExpW6YNLCMBy4dTZ9c11/TlI7LGndPAdm0+8nGzTTq1R95OpoLxHOlk5Pxgh/BoEuPu4DvAq5vbxY4uH/iCOaddQoZflY4mZlnz8akgF/hoHpAGQ9OMSiIaRLYTcdVQJbcbmzcwqpdan+Tt0dzgKgVPknV1PD7n63PRJMguQ4H4rDvVl7AdeedaXCQqtkbkHYFDm5t3kaDXuElR5WWPQUPThljkQJHVQ1WYwdDIW5evZX6N9SgYFs098dePyrvdzAQn90dTYLkOhyIuN8xOPDje+P6mA4c6eDm5m2sTHM4OHr6wI4kuj6BfGTwvY4Qtza3s0Jvia0dmAH4dgNQEMBAHQ7uq7yA6y1y4KNPk85QBA4+3dzOKr1fSUkNvDNPwaVjKLU0x0npGOSHBQpub26nTg8KtgKzEihbnlZuCwoYGByk1bS0zp5IgfeOdHBjUzur9dZVE3LO+P59+NW0cquSmJB69pAocKAjxB0t7dTtUFvS3wLM9jsUiNZBAgMZ7z3R9MkqywoWObAPnBMKHOwI8cnGLTTtTo8j0+P6l/LrqRWUWPIiJ9wfyDYOdHR0ViKtNShwxf9BA4MuOPgWkOeKwt2MdO45qLqA64bZhkS3tfebvUMdIa5t3EzLbm8nWRvbr5TfTq+gOMcyGvptDro1nqNQsJ3aHWr7/AITKejyaRDBQMYsGxKl8JJK5ODohsQzyLCzjG59W3xp53AozJUNm1i715twUNm3hMU1VRTmZPlSfxtU6hUQKJBEX08aFKRe7B4/Yl016CFjtwL/ARS63Sc7reC24v61dyQU5hMNbazTSwV7XHHL+5bw6MwqCrIMCvw7+1I7MosUpFbfk7UexIhBdz2uBX6kAQfSifsqPsL1559JpkUO9N4AH1juCEe4fMUGNuxTKx5zjIqjyopZNmsceVmS6ssuUyB+BWSj4Z0t7Zp7CgJx+uBEngk6GIguAgc/Bgrin77JP/GVEedw9/BzDA6SlzLQLYTDEeYv30Dbfl04GN6niBVzxpOTaVAQ6AmZxODlSKKcPlDcaBhoKBDXGRgcncDXSBZjg4Mk3mZ7VF2BcCTC3LoNbFaCg5FlxZ1QkGURMPW5kK4dECi4rbmd5Xp5CiR50cwgHEm0pYTY3pKrpf4RkB/b7c7eZZEDZ/UMamuRcIQ5y92Hg/F9S3h8znj7pRHUiefAuOUY7i26GQ0lzXGNnzMaxuomixgcq9RVwIMaRxmlG/8w4mzuGX6uLSvEOnvtvuMqIMsKc12EA4MCm4jJKiBlxm9u2sqKnWq1D6Qg0nSDgqOeNDD48Iy+Avi5Jhx8dvgwK7yU7Jcm4M8LHMxbvoFNKV5WMCgI+ERzYPhSJfGm1Vto0Ev1LaWTpwBqiRIckNHRJgwMji/nJ4BfauQ5kO58ecTZfM7gwNGJHsTGUg0HE/qW8JgtHwRxajk25vfDR0snr9SDgmeBSwC1PMuOielgQwYGJxbz48CvgRwH9Y65qS9dPJR7R50X8/12oylwPAVSdVqhWvIUzBlvopsCCStwJBzmulWbadylltr7OaAaUFu/SFi8FD9oYHBygecDi7UiB39/0VC+MNrgIMXvgO+blw2Jsqzg1FHG6n4lLJltGw19P3FSOMCOSISrG9po0kvp/XtgHKBGJSmUN+mmDQx6l1CIsglQSeH2txcO4YtjPmKbQXr3k91xEgUikQjz6zawMck9BxOjkQL7cNh0S1SBUCTCJ+rbWLNHLZX3i0AFoNaBRLVz6zl7v2NTWmKm67Q2a3767FP4xoQRsfXU7jIFTqCA5Dn41KrN1Ca4njtzQB9+MXOsQarNsIQViACXLW9l/V61RFwvAaOBtxMeRAAeNDCI3ckSdmqN/XZn77xp6GC+OXGks41aa4FTQD7M/7X9Bf7l6ZeQ/4/lko/EPwwfyj0jzzMoiEUwu+e4Csh8W1DXqpm6+2VglEFB7xPUwKB3jbrfoQYH4qgbhw7mWwYH8XnM7j6uAm+9f4QvtT7NQ6/tOalCl53aj+9Wj6QkV2UPrnnPJwoIFMyvXc/G/e9qjUigQCIFtnwQgwcMDGIQqcctAgfrNZYVDA7id5Y9cWIF5GN9OBTipbffY/Pu/fz5nYOEImGGlhZRPqCMc/sUkZuVZVECm0RJKeARKBhjGw1jd6OBQexa9YwcyJ4D1yvFiMNuGDqYb1vkIDHP2VOmgCngmgKdywe169mgGykwKIjT4wYGcQrW7XbZkLjW4CBxAe1JU8AU8K8CnZGCulY26pUDl42G5RYpiH+OGRjEr1n3J1ThwPYcJOc8e9oUMAVSo4BAwcK6Vlr1oMD2FCThWgODJMSLPloZjRzkJt9UfC107TmQZYVYd5jHZ8HuNgVMAVMgPgUMCuLTy4t3Gxg445WLgU1aJZtvGnoK35g4wjaJOeNLa8UUMAUSVMADUGB5ChL0XffHDAwcEDHahCQZkNMKhc41GXtLl5/anx9MGWMlm2OXzO40BUwBBxWQjIYfW7GRdXvVcge9AEgE144kJulXA4MkBezxuJyTbQGKnW02ttY+dlp//ufSMWRlmFtjU8zuMgVMAScUkNoHV+imOf4dIHu+rPaBAw61vyAOiNijCcnB3QiUON907y1ecfoA/nPyaLINDnoXy+4wBUyBpBWQKolXN2yiWa/2gVVJTNqLxzZgYOCwoNHmqoAGoDQ1zZ+81SvPGMj3Jo0iO9Pcq6G/2TQFgqLA4XCY61dupnG32g/1Z4DJwL6gaO7GOO0vR+pUHgssB8pSZ+LELV915sDOVLY5ma7nYNIYrtk0BUwBlxU4FApzY+NmVu1Sg4KngCkGBc473sDAeU27tyhrXsuAfqk1c/zWrzlzEPdVjzA40BDfbJoCPlbgUCjETau30pBgpU4HpNkOTAP2OtCWNdFDAQOD1E+JCcBSoH/qTX3YwjVDBvHtiSPItciBhvxm0xTwnQIHO0Lc0tzOip1q0fttwHSDgtRNLQOD1GnbM3KwGDjNHXPHWrnurMF8c8JwgwMN8c2mKeAjBd7rCHFbczvL9aCgHZgBnLwsqI801xiKgYF7qksd8CeAM9wz+YGla4cM5uvjL6YgO0vDvNk0BUyBNFdAoOD2lnbqdqhFCrYCs4DdaS6l57tvYOCui1ThYMFpA/ivSSMpNDhw1+tmzRRIcwUOdHRwZ8t2aneoLelvAWYbFLgzkQwM3NG5uxWDA/c1N4umgCmQoAIHOkLc2bJNEwosUpCg7xJ9zMAgUeWSe04yJMqGRJVlhYWn9ef7k0ZZ5CA5H9rTpoDvFZBIwV1rtvPk66qRgjnALt+L7aEBGhjoOUM1crDw9AF8v9qWFfTcb5ZNAW8r0AkFLdt5Unf5wKBAYZoYGCiI3s2kKhzYngNd55t1U8CrCsjywV0t2wwKvOqgFPfLwCDFAsfQvMCBJEE6PYZ7Hb9lwWn9+e9Jo+y0guPKWoOmQHoq4AEosD0FylPHwEDZAVHzUrL5SS04mH9qf/7nEoMDb0wF64UpoKfA0SOJ26jTWz6QPAUz7fSB3hwQywYGuvp3t35+FA7O1ejS3FP784PJo8jPsjwHGvqbTVNAWwHJaHibLhRIRsMaS16kPRMMDPQ9cGwPzoqWbD5bo2OzT+nH/00eTZHlOdCQ32yaAmoKHAyFuKVJNc2x1D6QNMeW0VBtFnxg2CIGHnBCjy4MAZoBgQTXr3H9SnmoptKOMrquvBk0BXQUkCqJN63eolkQ6elolUS1M5E6ynvXqoGBN31zJrAWkP+6flX1K+GRGVW2rOC68mbQFHBXgfc7SydvYeWu/e4a/sDaM8ClVhBJS/7j2zUw8JY/uvdGoGC91obEir4lPDZzLHlZmd5VyHpmCpgCCStwOBzm+pWbadz9ZsJtJPngc8AkQK34QpL99+3jBgbedq0cYWwDTtXoZnlZMUtnj7OqjBrim01TIIUKHAlHuGblJpr0oOD3wHhALVSRQnnTvmkDA++7UEo1y7neQRpdHd2niNq5E8jOsKmiob/ZNAWcViAUiXBlfRvNe95yuulY2/sDMBZQC1XE2tGg3mdf+/Tw/CnAU8AAje6O7FNE/dwJZBocaMhvNk0BxxQIAx9bvoG1e992rM04G/ojUA6oUUmc/Q3k7QYG6eN2iRjImlw/jS5fXFpI4/yJZFjqCw35zaYpkLQCEeDyulbW7Xsn6bYSbOBPgCRzU6OSBPsduMcMDNLL5QIFct5XJX3yUTioNjRIrzljvTUFECi4rK6V9XpQ8DIgVWUtUpAG89HAIA2c1KOLZYCc+1WBg4tKClg5r5rsTJs66Td1rMdBVECgYGFdK60GBUF0f0Jjtq97QrKpP6QKB0MK89iwcBLZmXaUUX0mWAdMgZMoIFCwoK6VDbpQMMY2GqbXNDUwSC9/de+tKhycWZjHRoOD9J091nPfKyBQML92PRv3v6s1Vlk+MCjQUj8JuwYGSYjngUf7AJI5TGVZQeCgbeElZNmyggemgnXBFPhAAYMCmw3JKGBgkIx63njW4MAbfrBemAKeUKBz+aB2PRt0IwW20dATsyGxThgYJKab154SOJDTClKAyfVLIgetCyaRa+mTXdfeDJoC3RXwyJ6CUXYkMb3npYFBevuve+9lz8EWQKVk89CifFrmVZOfbRsS/TOlbCTppIAkL5IjiYqnD16MJi+yPAXpNHGO01cDgzR3YI/u9wU2AsM0hnVucQEr54ynKCdbw7zZNAUCq4CkOf74io2aGQ0lzXGV5SnwxxQ0MPCHH7uPQuBgBVCpMbTzigtYPns8JbkGBxr6m83gKdBZEKmhjSa92ge/AyZYQST/zD0DA//4svtISoCGaKES10d4QUkhS2qqGFCQ67ptM2gKBEkBD5ROfjZaOtmqJPpo4hkY+MiZPYYicCCRAylt6vo1tDCfJ2ZWMbgw33XbZtAUCIIC74fC3NC4mVW71IoUSgbWKcDeIOgdpDEaGPjb26VAXTTM5/pIzy7K5/GaKk4pMjhwXXwz6GsFDoXC3LR6Cw1vqP1Ql2qvUw0K/DnNDAz86dfuo5KjjE8CEzWGek5RPo/WVHGqwYGG/GbThwocDIW4uamd+p37tEa3DagB9mh1wOymVgEDg9Tq65XWBQ6WAdUaHTq3OJ9HpldyWlGBhnmzaQr4RoH3OkLc1tzOcj0oaAdmGBT4ZkoddyAGBv72b8/IwRPRjUKuj3pYcQGLplVwerHBgevim0FfKCBQcHtzO3W6UDAT2O0LQW0QJ1TAwCBYk0OSIC01OAiW02206a/AgY4Qd7Zso3aH2j6/rcAsg4L0n0uxjMDAIBaV/HWPKhxInoOHplVwhkUO/DWrbDQpU8ADUCAZVWcbFKTMxZ5r2MDAcy5xpUNyWuE3wBxXrPUwInDwsC0raEhvNtNMAYGCz6zZxrLX1SIFAgXyndiVZtJZd5NQwMAgCfHS/NFC4OHoS+/6PBA4+MWUMZxTWpTmMlr3TYHUKNAJBS3bWKa3fGBQkBrXer5V1/8geF6RYHVQFQ5OL8jl4akVnFdWHCzVbbSmQC8KCBTc1bKNJw0KbK4oKGBgoCC6x0zqw8G0Cs7rY3DgsXlh3VFSwANQYBsNlXzvFbMGBl7xhG4/utALB4AAACAASURBVOBgrkY3Ts/PZdH0CoYZHGjIbzY9pIAcSbzDTh94yCPB7IqBQTD9frxRCxws0tqQKHCweHol5/axPQc2JYOpgAegQJIXWZ6CYE6/Y0ZtYGCToLsCAgeLo0eTXFfmtPxcltRU2oZE15U3g9oKHJSMhi3t1O1QS3O8HZhuGQ21Z4I37BsYeMMPXuqFKhycmp/D4zVjGVoq3bDLFPC/AodCIW5pUk1zLFUSpSCS1T7w/3SLaYQGBjHJFLibJG/xkmimM9cHf0peDstmjmVIicGB6+KbQVcVkNLJUiWxXq9K4jPApVYl0VW3e96YgYHnXaTWwVzgAeAajR4Mysth+axxliFRQ3yz6YoCh8Nhbli1hZW71EonPxdNj662fuGK0GYkbgUMDOKWLFAP5AAPasHBwNxsls4YaxsSAzXlgjHYI+Ew167czOrdb2oN+PloKXY1KtEauNntXQEDg941Cvod2cDPgas1hCjJymTFnHEMK7U8Bxr6m03nFeiIRLiqvo3mPW8533hsLf4BGAcYFMSmV+DuMjAInMsTGrDAwS+AqxJ6OsmHirMyWTVnPGdb+uQklbTHtRUIRSJ8fMVG1u59W6srfwQqALVQhdbAzW7sChgYxK5V0O8UOPglcKWGEEVZGTTNm8BZxZbnQEN/s5m8AhHgsroNrN+nBgUvA6MAtQ4kr6K14IYCBgZuqOwfG8pwkEnzvAkMKbbTCv6ZUsEYyVEoaGX9vne0BvynKBSorV9oDdzsxq+AgUH8mgX9CdmQKMsKKpEDWVZomjeeIRY5CPo8TJvxCxQsrGulVRcKRtvyQdpMGfWOGhiouyAtOyBwIBsS1fYcrJ47nrNKbFkhLWdPgDptUBAgZ/toqAYGPnKmy0NRh4OmueMZYnDgstvNXKwKGBTEqpTd5zUFDAy85pH06o/sObgP+KxGt48uK9ieAw3tzebJFeiEgtpWWver7imw5QObqAkpYGCQkGz2UDcFMoHvasFBUVYmT9RUMbx/qTnFFPCEAgIFC2pb2aALBXL6wDYaemJGpF8nDAzSz2de7LHAwX8A92h0Li8jg9qZVYzo30fDvNk0Bf6igEeWDwwKbE4mpYCBQVLy2cM9IgeqcPDEjCpGDzA4sFmpo8DRSMF6Nux/V6cD8BIgyweWp0DLAz6xa2DgE0d6ZBhdkYO7AdfnlkQOWhdUW+Elj0yGIHUjLGmOV7Sxeq9a9P7FaEZDtQ4Eyd9+H6vrH2+/C2rjIyu6rPAZDTiQks0bL7uEgmzphl2mQOoVkEjB17c8z3eefyX1xo5v4ffR2geW5ljLAz6za2DgM4d6ZDiqcHDP+afzlcqL3A9ZeER864a7Cuw9eJgLljS5a/QDa1YlUUt5H9s1MPCxc5WHJnDwPeAutyMHsp7xzEcnM6AgT1kCM+93BSIRuGFVG3VvqPxYfxa4BNjnd51tfO4qYGDgrt5Bs9YVORA4kL/Xrl3/OfZCrhl2hmv2zFAwFTjYEWLIQ6s0Bv80MAXYq2HcbPpbAQMDf/vXC6MTOPhH4EvQuf/AlevC4nxWL5hEZoZNcVcED6iRjW/sZ97KTW6PfjswHdjjtmGzFwwF7KsZDD9rj1Lm2VfdhAMhkD9dNZ28LFcDFdo6m32XFbj/+Zf5uy1/cNPqNmAGsNtNo2YrWAoYGATL39qj/ZcoHKT8r7VM7Bc/MZWSXMnabJcpkBoFvrLxWf7vhddS0/iHW30qGikwKHBL8YDaMTAIqOOVhv3PwJfd2G/QCQZXTKUkx8BAydeBMOsyGMgSQo1FCwIxtVQHaWCgKn9gjNtSQmBcHayB2lJCsPwdlNEaGATF03rjlOX+fwL+3jYf6jnBLKdGAdt8mBpdrVVdBQwMdPX3u3W1REffq7qQa8+z44p+n2Da47PjitoeMPupUMDAIBWqWpuigBoUWIIjm4BuKSAJjm5c1UatJThyS3Kz44ICBgYuiBxAE2pQIFp/5vzT+UdLiRzAaaczZEuJrKO7WU2dAgYGqdM2qC0LFHwXUKmwKEWUWhdOoshOIwR1/rk+bimidF/77/jGs3923XbUoBVR0lLep3YNDHzqWKVhWdllJeHNrK4CHii7/AJQCVjZZd2p4AvrBga+cKMnBtEFBfdo9CY3I4NlNVWMHthHw7zZNAWQyMGC2vVs2P+ulhovAaOBt7U6YHb9oYCBgT/8qD0KgQJZPvisRkcECmpnVDFygEGBhv5m8wMFBA4W1rXSuu8dLVlejsKBRQ60POADuwYGPnCi8hBUoaA4K5OlNVUM71+qLIOZNwWOKnA0ctDKhv0GBzYn0lMBA4P09JtXei35hr8NfE6jQwIFq+dO4KySQg3zZtMUOKECnZGD2lZa9eDgT9HIwZvmJlMgXgUMDOJVzO7vUiAH+DlwlYYkR6FgPGeVFGmYN5umQK8KeGBZweCgVy/ZDcdTwMDA5kUiChgUJKKaPRM4BTwAB7LnYAxgkYPAzb7EB2xgkLh2QX1SoOAXwJUaAnRGCuaN56xiixRo6G8241fAI3AgpxVsQ2L87gvkEwYGgXR7woOWPQW/1IKCoqxMmmxPQcLOswf1FBA4uKyulfV2WkHPCWY5ZgUMDGKWKvA3KkNBRhQKLFIQ+JmYpgIchYMNrN+nlmZAlhVGWZ6DNJ1ALnbbwMBFsdPYlECBLB+obTRcOWc855QaFKTxHLKuA6FIhI+v2MjavWpw8GI0Q6LtObAZeUIFDAxscvSmgECBnD64urcbU/HvJVmZrJgzjmGlxalo3to0BVxXoCMS4ar6Npr3qC35S22F8cB+1wdvBtNCAQODtHCTWidlo+GDwDUaPRiYm80TM8ZyTh+LFGjobzZTp8CRcJhrV25m9W61H+7PAxMNDlLn43Ru2cAgnb2X2r7nAg9oQcGgvByWzxrHGcUFqR2ltW4KKClwOBzmhlVbWLlL7Yf7s8AlwD4lCcysRxUwMPCoY5S7JX+NlwCzNPohpZOXzRzLEMtoqCG/2XRRgfdDYW5avYX6N9Tg4GlgCrDXxWGbKY8rYGDgcQcpdE/yCy8GZivY5tT8HB6vGcvQUktzrKG/2XRfgUOhELc0tbN8p9oP96eAacAe90dvFr2ogIGBF72i1yf5a7wImKPRhdPyc1lSU2mnDzTEN5uqChzsCHFbSzt1O9TgYDsw3eBAdRp4xriBgWdcod4RVSg4PT+XxdMrOdc2GqpPBOuAjgLvdYS4o2UbtTvUovrtwExgt44CZtUrChgYeMUTuv0QKHgYmKvRDYGCRdMrGNbHjiRq6G82vaOAwYF3fBHknhgYBNn7R8feBQWyfOD6fDi9IJeHp1VwnkGBzURToFOBAx0h7mrZxpN6kYOt0Y3HFjkI6Jx0/Q9BQHX26rAFCh6KRgpcnwudUDC1gvPKLFLg1Qli/dJRwANwsCW612iXjgJmVVMB1/8YaA7WbB+jgCoUnFdcwC+njOFsS3Ns09IUOK4CAgefadnGMr3IgcFBQOemgUEwHV8K/Ebr9IFAwUPTKix5UTDnno06DgU64WDNNpa9rrYh0eAgDn/55VYDA794MvZxlAFLgUmxP+LcncOKCzr3FFhGQ+c0tZb8rYDAwZ26pxVsz4G/p9iHRmdgECyHq0PBomkVnG5pjoM162y0SStgcJC0hNZAHAoYGMQhVprf2gd4QjNSYFCQ5jPIuq+qgBxlvL25nTq9DImW50B1Brhn3MDAPa01LQkULAOqNTpxbnE+j0yv5LQiK4ikob/Z9I8CAge3NaumTxY4mGEZEv0zp443EgMDf/tXRidQ8GS0xKrroz2nKJ9Ha6o4tSjfddtm0BTwowIHQyFubmqnXi9ysA2oMTjw4+w6OiYDA//6VkYmpw/qgAkawxxalM/SmipOMSjQkN9s+liBQ9GqjA16VRmltoIUXlI7LuFj96oPzcBA3QUp60AJsAIYnzILJ2l4aGE+T8ysYnChRQo09Deb/ldASjbf0LiZVbve1BqslGy+FFCr/KQ1cL/bNTDwp4cFChqAsRrDu6CksHP5oH9BroZ5s2kKBEaBw+Ew16/cTONuNTh4NrqheX9gRA/AQA0M/Ofk/tHlg0qNoUnyouWzx1OSm61h3myaAoFT4Eg4wjUNbTTteUtr7L+LLlcaHGh5wGG7BgYOC6rcXF9gIzBMox/nFhewcs54inIMCjT0N5vBVSAUifDxFRtZu/dtLRF+H41QqtGJ1sD9aNfAwD9eleRFkr70bI0hyZ6ClvnV5Gdnapg3m6ZA4BUIA5fVtdK67x0tLV4EygE1OtEauN/sGhj4w6NyJFF2CQ/RGM6ZhXm0LphEbpZBgYb+ZtMU6FIgAiyoa2WDHhy8DIwyOEjvOWlgkN7+k94LFDwDnK4xFIGCtoWXkJVpU0lDf7NpCvRUoBMOatezYf+7WuIIHIwGbFlBywNJ2rWveZICKj9uUKDsADNvCnhRAYGD+bXr2agHBy9FlxXUjkt40S/p0icDg3Tx1If7KXsK5ByxWqRg48JJZGfa8kH6TiHruZ8VMDjws3dTOzYDg9Tqm6rWBQqeAs5IlYGTtTukMI8NBgUa0ptNUyAuBTyw58AiB3F5zBs3Gxh4ww/x9EIVCi4sKaRx3kTbUxCPx+xeU0BRAYGDhbqnFWzPgaL/EzFtYJCIanrPDACkupnK8sHFAgULqq3Ahp7/zbIpkJACAgdylHG97mkF25CYkPfcf8jAwH3NE7U4CHgO6JdoA8k8d3FpIY3zJ5JhWJCMjPasKaCmgMDB5XWtrNOFAzvKqDYDYjdsYBC7Vpp3nhLdUyARA9evEaVF1M+bQFaGTRfXxTeDpoCDCkgSpI8t36CZIfGP0dMKdpTRQb863ZR96Z1W1Pn2TgO2AhIxcP0a3aeI2rkTyDYocF17M2gKpEIBSZ98ZX0bzXq1Ff4QTZ9sRxlT4WAH2jQwcEDEFDYhewnagFNTaOOETY8pK+aJ2ePItSOJGvKbTVMgZQp0Fl5auYkmvaqMVngpZd5NvmEDg+Q1TFULZwLrtTYaVvQt4bGZY8mzNMep8q+1awqoKuCBks2yZ2oSsE9VCDP+IQUMDLw5KQQK1gLyX9evyn4lLKmpIj87y3XbZtAUMAXcU+D9UJgbG7ewcpdaxWRJ534psNe9UZul3hQwMOhNIff/XQohNQNnuW8axvUr5aGaSgoNCjTkN5umgOsKHAqFuWn1FhreUIMDSdY21eDAddef0KCBgXd8IT0RGGjUKp0855R+/O/k0RQZFHhrVlhvTIEUK3AwFOKWpnZW7FSL6kt12OnAnhQP1ZqPQQEDgxhEcumWC4AngHNdsneMmbmn9ucHk0eRn2XLBxr6m01TQFuBgx0hbmtpp26HGhxsA2oMDrRnApatRt8FnT0YAdQBcjTR9Wv+qf35n0tGUWCRAte1N4OmgJcUeK8jxO0t26jbobbkL5ldZwK7vaRL0PpiEQN9j0smsGVapw8WnNaf/55kUKA/DawHpoA3FDjQEeKulm08qQcHkrdllsGB3nwwMNDTXiwLFMjygUqVxAWnDeC/Jo20jYa6c8CsmwKeU8ADcLAFmG1woDM1DAx0dO+CgqVaRxIXnj6A71cbFOi53yybAt5W4EBHB3e1bNeMHAgczAF2eVsp//XOwEDHp1JlTKBAJVKw8LQBfN8iBTqeN6umQBop0AkHa7bz5Otqew4MDhTmi4GB+6LL8oFapMCWD9x3uFk0BdJZAVlWuLNlG7V6ew5sWcHlCWRg4K7gI6MbDVUiBQYF7jrbrJkCflFAIgd3tmw3OPCLQ3sZh4GBe45WhYLrhgzm38dfbEcS3fO3WTIFfKXA0aOMqnkO7LSCSzPKwMAdoccDi7SOJF531mC+OWG4VUl0x9dmxRTwrQICB7c1t7NcL0Oi5DmYYUmQUjvFDAxSq6+0PiG6p6B/6k192MI1Qwbx7YkjDAo0xDebpoAPFZAMibc0q6ZPlgyJkj5ZbUekD916zJAMDFLr4XHAk0C/1Jo5futXnzmI71SPICczU8O82TQFTAGfKnAoFOKm1Vs1Cy9JbYVpBgepmWAGBqnRVVodG01z3Dd1Jk7c8lVnDuS71SMNCjTEN5umQAAUkKqMNzZuZtWuN7VGK1UZpwBqxR20Bp5quwYGqVG4EmgA+qSm+ZO3euUZA/nepFFkZ5p7NfQ3m6ZAUBQ4HA5z/crNNO5Wg4NngMkGB87OOPvL4aye0lo5sBoocb7p3lu84vQB/Ofk0WRnmGt7V8vuMAVMgWQVOBIOc3XDJpr3vJVsU4k+/xxQDexPtAF77lgF7K+HszNCMhq2AMXONhtbax87rT//c+kYsgwKYhPM7jIFTAFHFOiIRLiivo01enDwO0BOf6mFLhwR0iONGBg45wjJU7AOKHKuydhbuvzU/vxgyhgyDQpiF83uNAVMAccUCEUifGzFRtbtfduxNuNs6AVAlnHVQhdx9teztxsYOOOai4FNQL4zzcXXyk1DT+EbE0dgzoxPN7vbFDAFnFUgAiysa6V13zvONhx7ay8BErlVo5PYu+rdO+1vSfK+EUJdC+Qm31R8LYjzbjxrMN+uHom8kHaZAqaAKaCtgEfgYIxFDhKfCQYGiWsnT8qalkCB64kCxHE3DB3MtyfKCoZdpoApYAp4RwEPwMHL0ciBLSskMC0MDBIQLfqIJC+SPQU6UBCNFCTefXvSFDAFTIHUKSBwML+ulY26ywpySsw2JMbpZgODOAXzBBRYpCAxr9lTpoAp4KoCAgcLatezYf+7rtrtZkwiB7KsYHAQhwcMDOIQK3qrZDRsBff3+nXuKRg6mG/Z8kH8XrMnPqSAfLQPh8L88e0DbN79Jq+88x6hSJizSosoH1DGsD5F5GZluT/RzVe+UqAzclC7no0GB2njVwOD+FwlywcCBa5fBgWuS+5rg2+9f4R/2PgMv3ll90nHefmp/TpBtCwvx9d62OBSq4AH4EBOK9iGxBjdbGAQo1CAGhRIFz9lkYLYPWV3nlAB+UD/3zMv8o/b/hjXSZYvXXwWnx91vkUPbG4lrEDnskJdKxt09xzYUcYYPGhgEINI0dMHstFQRS/JU/DNiSNi66ndZQqcQAH5MN+0ahPLdiaWOXb6gFJ+PXOczktgXvWFAjIHL1veyvq9ankO/hiNHFieg5PMKJU/dGk2wyUHdxOQpdHvv7voLL44+nwN02bTRwrIB/m6hjbqk6yEN7FvCY/OGW9w4KO54fZQJEPiJ3TTJ78IVFiegxN73sDg5G/FfGCxRvIi6dbfXzSUL4w+z+331uz5UIFrGtpoSBIKumSp7lfCktkGBz6cJq4NSWorXN3QRtNutTQDVlvBIgYJzfePA78GVHZdfeniodw7yqAgIc/ZQ8cocE19Gw0Ol8WtjkYOTGpTIFEFpCrjdas20+gQsCbQD6vKeALRLGJwfGE+AfxSK1Lw5YvP5nMjh2H1kBJ41e2RYxS4ur6NVbvfjGujYawSTuhbwmO2rBCrXHbfcRR4PxzmxsYtrHwjsX0vDoj6LHAJsM+BtnzThIHBh115BfBzIE/Dy/8w/Gw+O8KgQEN7v9lMJRR0aTW+bwlL50hmcLtMgcQUOBQKc9PqLTTowcHTwBRgb2Ij8N9TBgbH+vQq4EFNKLhnxLlWOtl/75mrI5KNhrJ8kKpIQc/BXFBSSPO8ajJcTw7uqqxmLIUKHAqFuLlpKysSPDHjQNe2A9OBPQ60lfZNGBh84MKrgZ9qlU7+yohzuHv4OQYFaf9K6Q5AoODaFOwp6G1UAgdNC6rdLxzSW8fs39NGgYMdIW5pbmfFTrWofjsww+BA6Vy+B2fqNcD9QIFG374y/BzuHmFQoKG9n2xqQUGXhheWFtI4byJZtjnGT9PK1bG81xHituZ2luvCwUzg5ClBXVXFfWMWMYBrgR+rQYFFCtyf9T606FSegmSlGd6niBVzxpOTaesKyWoZ1OcFDu5oaad2h1rkYCswK8hwEHQwECj4EVCo8RLeV/ERrj//TFs+0BDfRzbDkQifXLmZFbvUdnYfo+aosmKWzRpHXpbBgY+mmatDOdAR4k5dONgCzA4qHAQZDG4HvqMBBSL6dyov4LrzzrQjia5+bvxnTLLI3dS4hVq90OtxRa3oW8KSmVUUZKkkDPWfowM4ogMdHdzZsp3aHWqHBQQOJHIQuA2JQQQDGfNngPs08hR8AAVnkGFrsQH83Dk35I5whFtWb2GZx6Cga4SVfUtYXFNFYY7BgXNeD1ZLAgd3tWznSV04CFzkIIhgcA/wLY0jiZ1QUHUB1w2zSEGwPm/Oj1ayxt3e1M5SvQ9mTIMa26+U306voDgnO6b77SZToKcCHokcBAoOggYGqlBwX+UFXG/LB/blS1KBw+EwdzVv47HX0yPCOb5/Kb+aWkFJrsFBkq4P7ONH4WCb5obEQO05CBIY3K25fGBQENhvmqMDPxwKc/ea7Sx5Lb1OU43v34dfTSunxCIHjs6HIDUmGxLltEKd3mmFwMBBUMBAoODbWssHBgVB+nylbqzvh8J8du12Hnk1vaCgS5GJA/rw8yljKM1VqUuWOsdYy64pIEcZb29up05vX40cZZQ8B+kRrkvQM0EAA9loKKcPchPUKOHH7PRBwtLZgz0UkHzyn1+7ncVpCgUGBzalnVJA4OBWy5DolJzHbcfvYHAX8F0tKPhu5QVca3sKUjqBg9C45JG/d93TLHplly+GWz2gDw9OGUMfixz4wp8agzgotRVWb6Ver/DStmhtBbWzlKnU3c9goAYFktbl/uoRzB9yiiWdTuXsDUDbEin4wrqneNgnUNDlskkDy3jg0tEGBwGYw6kaorwbUrJ5lV5iLym8NNWPJZv9CAYypr8G/hVwfTFTjP+0egTzzjolVe+DtRsQBfwKBQYHAZnALgxT9t18snEzjbvedMHacU1IyebJgDfSjjqkgt/AQMbzd1EocD0fqxj86aQRzJVIgV2mQBIKyPLBF9Y97btIQU9JqgeW8bNLR9uGxCTmStAfleO71zZsomnPW1pSPAtM8hMc+AkMZCx/A3wN3K/+KlDwwKQRzDEo0Ho5fWPX75GCno6S0wr3XzKaAQWu7w/2zZwJ+kCOhCNcWb+RNXvf1pLieWACoBa6cHLgfgIDgYKvo7CqL1Dw4KSRzB4y2EnfWFsBVECg4N51T/lmo2GsLhxZVsRvp1YwoCAv1kfsPlPgGAWkbshHV2xg/d53tJT5PTAWUAtdODVwv4DBXwHf1IKCn00aySyDAqfmZGDb8QAUyK8e+apWaThhRJ8iHp5eSf98ixxo6O8Hm2FgYW0rG/arwcGLQDmgFrpwwo/pDgbS/y9Ekxc5oUdcbWRlwIPVBgVxiWY3H1cB2UQleQoW6eUpECioiYJBLTBRw1XD+xSxeHol/QwONOT3hc0IsEAXDl4CxqRz5CCdwUD6fm80zbHrEzo7I4MHqkdYpMB15f1nUKDgc7rJi34XPZP9WlTdEmB5dM3UdcEv7lPEkppK+uZZ5MB18X1isBMO6lrZsE8tcpDWcJCuYCD9/nw0o6HrUzknI4OfVA9ntm00dF17vxmUHdV3t6jWPpB1UTmL/XoPbQUO6oFxGppfVFrE4zOq6JPn+oljjeGazRQo4BE4kGWFtNuQmI5gIHv9BAruS8Fc6rXJvMwMHplaztjB/Xq9124wBU6mgJROlopxj72mlnb9hegZ7B0n6GcxsEprz8EFpYUsmznWjjLaa5SwAh6Agz8CFekGB+kGBlnAPwNfSnimJPFgJxRMK2fsIIOCJGS0R4GOcITbmraydIdaRlXZJCVnr3f24hCBg0agUsNx5xcXUDdnvFVl1BDfJzYFDhbWtdKqt6yQdnCQTmAgkQLJUfC3GvNVoGDJtHKqDAo05PeVTTlWdXPjFpbpVYh7GRgPvBGjsEVAc3S3dYyPOHfbucUFrJozgcIc+V1glykQvwIe2JAocCDLCmlxlDFdwECg4N+jCYzinxVJPpGbkcGj0w0KkpTRHgfCkQifWrWF2jf2aenxSjS0GW/t5kJgLTBao+NnF+XTPG8i+dkGBxr6+8FmZ+SgtpVWvaOMaQMH6QAG0sdvROsfuD4/ZaPh4zXlVA605QPXxfeZQfkwXd/Qxgq9vO6ywXBUErXkBQ7WAyM1XHNWYR7rFkwiN8v1bOcawzWbKVDAA5EDidbJO+jpPAdeBwNlKIDHplfY8kEKXtCgNSkfpOsa2qjXgwLZYCh/0JPd6ShwsAEYruHDIYV5bFg4iexMgwMN/f1gU5IgXV63gfX71P42y/4e2ZDo2WUFL4OB9E2yGX5RI6NhTgY8Mq2C8Xb6wA/fAtUxdEJBfRv1u9VOLUmkQJYA4l0+OJFuAgetwAgNYc8szGfjwmqDAw3xfWKzIxLhCqmtsEcNDuSYsBwFVvsonMyVXgUD+TkgUCBZDV3vo0DB4qnlTDilv09eAxuGlgIegQLJwrbLYQ1kQ6LAgVrkoHXhJHIscuCwW4PTnBReurqhjWa9qoySbVQyjHquZLPrf3RjmHYCBbKnQCVSIBsNH5o6hmqDghhcZbecTAGBgmvr21i5+03k/xUuiRSkAgq6hqK+rGBwoDCrfGRSEoxdv2ozjXpLfM8Al3gNDrwGBgIF34qmOna9byWZmTw6o5KR/fv4aOrbUDQUEBC4pr6NVXpQIOmN5XiU05GCnnIaHGhMMLPpmAKSkvzG1VtY+YbaD3eBg8mA2lGlnmK6/sf3JN6U3Kf/C3xaY/mgNCuTR6ZXMGpAmWMTzhoKrgJX60LBq9HNTamGgu6RA7U9B3JaYb0tKwT3ZXNg5FLZ9NNNW6jfqQYH24FpgFrGs+4yegUMsoEfATdqQcHiaRWMHmhQ4MA7FvgmJFKguHzgNhR0+bsAWBatu+D6HDijMI+WudUU51qeA9fF94nBg6EQtza1s1wv8di2aIXTZE8OJe0RL4CBRAoECm7QgoKHp1VQblCQ9GSy7Fz1BAAAIABJREFUBo4uHyhCgSwfyJ4Cp04fxOtSKYf4ZLRSY7zPJn3/oLwcWhdUU5JrhZeSFjOgDbzXEeK2lnaW71CL6rcDMxw4VpyUB7XBQBUK+mRl8tDUcsoH9U1KRHvYFBAFZKOh8pHEZJIXOeVEgQOJHNQ41WA87Zyan0PzvGrKrCpjPLLZvd0UEDi4vaWdOj042ArMUgR8948CdtNflg9+rBopMCiwD4IDCoQj8MmVqhkNJc2xbDRUD0FG5cwDHgdmOiBv3E2cXpBL45wJ9M0XRrHLFIhfgQMdIe7QhYMtwGwtONCKGOjuKcjM5KFp5VRYpCD+N8aeOEYBKYh006rN1OrtaP5ztCyyWxsNY50B+cCj0V8+sT7j2H1nFuSyYvYEBhQYHDgmasAaOtDRwR0t26nTq4C6GZijAQcaYOABKKigYpBtNAzYe+74cCV72q2rt/CEXsjxJWBCHFUSHdeglwZlQ+Ij0V8+bttG0ifXzhrHoAIJYNhlCsSvgMDBnS3bqQ0YHLgNBrKn4Idapw/6Z2fxK1k+sI2G8b8h9sQxCkjWtNubtrJU74Mh+dYnATs97hqBg8XRXz6ud1WOMi6b+f/bOxPoLMsrj/8gCQlJCAmrOi5VsK5sgYRV1rCIqJ0zo9alWsdqwaWVMmunnbYz0zPOtDPtdNqZqrVatVZZRPYlASSQgIQ1gEhdC8iq4i6Q5PvmXHjTogbyLe/33Pd7v/uc03Ps4X22//O8b37ffe5zbznd88WAYcUUiF+BjxoaubumnoV71W4SOj9WcAkGqlBwRm42M8cM4KLiDvHvDKthCpykgERLu7t6C3P2qh3pvwyMACQxUjoUgYOZwESNwX6hIJe5FeWcWWBwoKF/GPoUn4MpqzazSM866BQOXIGBvJG/Aa7TuJJ4HApGD+CiEoOCMLykmnMQKLinegvP6UHBTi8QioQ7TqcicDADuEpj0OcX5PJcRTlnGRxoyB+KPgPikCi3FVL+i8QFGAgUPA1cq7E7zFKgoXo4+zzWFOG+1fU8+6ZWmAB2eNcA0w0KmjeEKhxcUJDHs2MG8GeFMgwrpkD8CgQgzoFYDlIOB6kGA4GCZ4Br4l+C5Gt0b5fNsxVlfLG4MPnGrIWMVkDiqX+zpp5Ze1ShQAKfSBCjdC7NcCDHCqn+/nxOpx4FecePFM82OEjnPaQ6doGDr1VvplIvQqLEOZCrwCmzHKTyxRQomA5M0vgAdM/NZvaYMi40KFB9icLQucRRn1qzlZl71G4Evuj9SpBwx2EoqnDQs7A9Eu3U4CAMW0lnDp80NnHHyk1U6l1TlgiJEkQsJR6RqQIDuR8k54kqUNCtXTZzxpbTs6OkjLdiCiSugEDBt2q3MmO3QUHiKrZYU7IyijVRfA5S9R065ZB7FuYxY7RZDnxe04xq7khjE19duUkzK6PkVhiTCjhIxQspUCAeyAIFzkvXdtnMG1dGjyI7PnAufsg6PNLUxLTabUw3KEjVyjbDgcq34sLC9kw3y0Gq1jYj2pUfDreu2MCKg+9qzVeyMo7yO2Wz32AgYcYkoImK53HndlksHjeQLxSZpUBrl4alX4MCZyupCgdiOZg+egDnmM+BswUPW0dyU+nmZRt4/pAaHGwHrgB8yxntJxgIFMzWuqt8Rm7O8UAm53aQ74wVUyBxBQwKEtcuwZqqcHChBwfmc5Dg6lk1JODZl5fVUX3oPS015MbSEMAXOvELDAQKJC66xHV2Xs7Iy2HlxKF0yrN0q87FD1mHYhqcVrvVjg/cr6vAgTgrq1gbT1gO+nNOof2wcL/04eixsSnKdcvWsfqt97Um9BIwCEiaTvwAA7l9sMyjFeeCSA72mkmWZtW58CHsUK4kTtV1NBTqD8OVxER3h3xLfg18WcMh8ay8HGaNGUDPjuaflOgCZnq9SDTKtUteYO07H2hJ8QrQH0iKTpIFA7l2tNpL+epcCIGCtVcPo0M7yctkxRRIXAGBgvtr6pmpF6dAaF+uH6V7nILEF+FETTH7PQLcogEHZ+bmMLtiAD0MDpJdx4ytH5HAPYvW8sJhNTh4DeiXDBwkAwZic6v26MT5Juiem8Oaa4bRIcegwLn4IeswAMGLJMyxXDvKdCho3lkCB2I5uFkDDsRfae7YMs43J+aQvenuphOVM7FFa6nTgwPJvCpwkNCxQqJgoA8FZilwt8tD3JN4FN+3SjXMsSREGgmka5jjVO0OgYNHgZs04EACpM0fW243nFK1uhnQrlgOJunCgVgO5FghbofERMBAFwrycqidNIwiOz7IgFcrtVMUKLh31RZmv5myyKKtTUBSJ8s1o3TJktjafPz+d2U4OHHT6Ty76eT3umZMe2I5mLhoDesPf6g1Z/nGDIgXDuIFgwBAwVCK2tntA61dFpZ+5XrR5OpNzNXLsS40P8ygoNUdJWeFj2lZDiSK6uIJgyzOQavLZA+cSoFoBCYtWcs6vWOFuC0H8YCBQMEqLUfD7mYpsDfPJwUao1HufH4T8/elJMx4LKOU8z+5c7w/loftmeMOic1w4FwOiaZaOWGQZWV0rnx4OhTLwdX6DokxHyvECgaqUHBmXjtWTxpiloLwvCdqM5HrRLev2MhCvcxofwAGAgfUREjPjsVy8BvPcuB8Bl3aZbP8ysGcWSA3Kq2YAvErIHAgtxXW6lkOYnZIjAUMVK8knpufS+3Vw8jNahv/SlgNU+AkBeTFvHXZehbrZUTb7TkDqeVuTvMNIXDwOHCjxjw65WRTfdUQuudLOhgrpkD8ChyHg8US5yCpMAPxd/ynGnKsUNrabYXWwKAI2AD0TGYkidY9AQVDyc3KSrQJq2cK/FGBm6vqWKqX7ESuIsr1IYOC5PakKhyU5GQdd37u0l6CvVoxBeJXQHwOrq1cy5q31eIciEOiwMEp6eR0YNARqAMujH/qydc4vyCPlVcNoX22QUHyaloLN1XWUamX5ESuIvY1KPBtH6oeK5TkZFM7aajBgW/LmXkNNUWj/MXSddS8rWY5kGvSZaeyHJwKDIqBtcBFGkt2QUEeyycOoSDHoEBD/7D1eWNlHVUGBWFbVnFIFJ8DlWMFg4OwbSf382mIRrmhso5VbyUUg8iPAUtgNcmt8Lk4By2BQQlQA1ziR8/xttGzsD1LJgyyOAXxCmfPf04BOc8TS8GyQ+8i/61QJD6BWAoOKvSdCV2qwoH4HMhRZ+c8O1bIhM2Wijkea4pw4/L12lkZh342ZfNnwaATsBK4PBUitNbmFzu0Z+G4gXTMtTgFrWll/356BQQExFKwXBcK+tjxQcp3qupVRrMcpHx9Q9/B0UiEryzfwAo9/6dtwAjgnWaxTwYDuX2wwrtK5XwxLurQnnljyykx+naufdg6DIilwKDA3cZStRwIHKwxy4G71Q5hT5Lu/bYVG1l+8LDW7OSUQDK7fiIDaAYDOcyXjGa3aYzq4g75PDe2zExyGuKHrM/jUFBVx7KDascH4mgotw/s+MDt3lKGA7ut4Ha5w9fbJ41N3FG9icr9anDwEDAZiDaDgaR7XQI4DxbQq2MB00f3p0t7uxscvq3udkYCBXIlscqgwK3wwelN9SpjcU4WKyYO4uwCiQdnxRSIXwGBgzurN7NEJwBbk5fldaWAgbxMVd4ZQ/wzSaLGoM5FPDmqlI6W+yAJFa1qswLKVxItTkEwtqJ8z/4TuE8jK2NBVhuWXTmYHpayORi7IQ1H8XFjE3et2sySfX888nc5C3EnGCdgII6GmzxAcDaAQV2KeHJEqTkaOlM8vB0dtxToximQiIYSMEQtTWN4VzehmYnl8ydacFCY1ZalEwZyYcfChAZvlUyBjxqbmLxqM4vdw0EDcJmAwf3eS+RsNQZ3KeLxEaUU2+0DZ5qHtSPJfXDb8g2aYY4l90G5+RQEboepwkGHrLYsHF/OxcUdAieMDSg9FPiooYkpq7ewyH2yt3sEDMTh4E5XUhkUuFI6/P1I9LA7Vmxkgc55nAgsSUkGW0KkwO41gYOfAvdqHCsUZbVl3rgyLi2RyPJWTIH4FfiooZEpq+tdw8HPBQzmAZPiH3L8NQwK4tfMarSsQGMkyl0rNzHPPU03D0iSkUjqZMuSGOxNqmo56JjV9viNq8s7GRwEe5sEd3QKloNZAgZzJVW0C1lGdS3msZGl5FuoYxdyh7aPhkiEydWbmbv3ba05vgIMBySyoZXgKyDXsf9Ly+egY3ZbZlcMoFcnST9jxRSITwE5Ln1g8+/5yY5d8VVM/OnjYPAw8LXE24iv5rjuJTw0vC8FOeI8bMUUiE+BY5EI96zawnNvqvn5SfKRkYDEK7CSPgqowkFxdltmjRlA784GB+mzZfRHGo3Cf9W/zAPb33A5mP8VMJjq0bSzjg0OnEkdqo6ONkX4Rs0Wnt2jBgWSdGS0QUHabit1OJg5pj99OkuOOiumwOkVkNtWv3rpDf5x48uuc71METC4FKgHnKYyNDiw1yIeBQQKvllTz6w9h+Kp5uezO7yQoRKvwEr6KiDfObnKqOKQKJYDg4P03TyuRt4MBd/Z+DIRV52e6EeCHF2qGuBofPcSHrRjBbfLnoa9SRzxqbX1zNxtUJCGyxfEITfDwT0a0V4FDmaM6U9fsxwEcW8EYkxPvLybaXUvubYUyNwrgYnqIZHNchCIfRjYQYilYGrtVmbsVks98CIwHtgTWJFsYIkoIHAgVxnv1oCDkuy2x0PB9+1ixwqJLF6Y68x87U2+8cKLNLjPFS/GiVFA9clJlB4E7tAQXODg4eF9yTeHRA35A9vnkaYmvlW7zaAgsCuU9gMzOEj7JQzXBBShQIT8P+/mTtPJaZclfqckUpK72c7L2G4l/GpkP/Kznbo6OJ+ndRibAgIF02q3Md0sBbEJZk8lqoDEOfhvsxwkKp/V80uByt0HuH31Vo7KVQT3ZZUcIQAfStcng4H8/27AQqC/+3FBRbdiHpE4BwYHGvIHps+AQMEEQHIgWAm/Aqo+B3Ks8Mzo/vSzY4Xw77RTzLBq90HuqKnn44gKFGzwoOCP57WfBYNmOFjkJYVxvlAVXYt5ZJTBgXPhA9JhQKDAfAoCsh8cDkP1toL5HDhc6YB1tfLNQ9y6aosWFGz3rmB/yomrJTBohoPFQD8NDUdLhMRRpbQ3y4GG/Gp9yu2DabVb7fhAbQUyvmN1ODDLQWbtwfUH3+GG5zfxfqPjS4knZJZgbWNasoyeCgykUlfv6kIfjaUa1aUjj4/uT57BgYb8zvs8cfugnhm6VxLH2e0D50sftA6bgyDJVUbnDk/5bdvw1Mh+DD2jc9B0sfH4rMCGQ4e5fsVGLSh41Yvg2uJtq9OBgcjQBVgO9PJZk5iaG9GliN+OGUBulvP3M6bx2UP+KCBQcH9NPTP1ghe9BFQAFrzInyVN91bku/hP3v/EOdFpad+mDU+P6scQgwOnurvs7JV3P2TC0nW81yjxhJyX/cBQQBLBtVhaAwOp1AlYCVzufPjAFZ2LeLqijHZZzt9PjelmXJ/Hjoc5Vo1o+HvvjM2gION232knLN/G7wLf04hzIHDwzKhSBp8hn18rYVLg1fc+4sql6zjc0KgxLfElkFTxp4QCGVQsYCDPSRSONcDFGjMZ2qkDM8aVk9PW4EBD/1T1KVkSJSHSbL2ESJYlMVWLG452VeEgr00bZo4uZWB3g4NwbCf4wwcfU7H4Bd7VgYJ3Pb/BVjMyxQoGsi6SUHw9cKHGIg0uKWTW+IEGBxrip6DPxkiUKas2a2ZJFGIWc5qY1ayYAqdSQB0OZo0ppbybwUG6b9G3PjnK8IVrOHS0QWMqEp+gHJCcL62WeMBAGisAtgA9Wm05BQ+UdyxgzpWDyW4b77BTMBhrMmEFBAq+Xr2JuXvfTriNJCsKMYs5zaAgSSEzpLp8cL4D/CAOK6tv0uS2acPsMf0p61biW5vWkFsF3jlyjMHza3jnmMrxwRFALhHIsWlMJZG/sO096jgvph58fmhAUT7zrxpCVptEhu7zYKy5uBVoika54/mNLNj3Ttx1faqwyyPnAz61Z81kjgL/CPyLFhzMqehP/64GB+m23T5qaKR0ziotKBASkQzKcjUx5pLoX9c8r6OzY+7Jxwf7Feax6OphBgc+auqiqUg0yleXb2TRATUokKs5AwCDAhcLHs4+FOEA5o0tswiJabSvjjRG6DdnJW8dVbEUyJUHiWIsVv64SqJgIJ20A14HzoqrR58e7l2QS9W1w2P2nvSpW2smQQUk0OdXlq1nyYHDCbaQdLW9QF9ALXdz0jOwBoKiwLeBH2oMpl2bNiwcW0afLh01urc+41CgoSnKZc+u4HCDypVE+eT2BrbFMeQ/PpoMGKjDQa/8PJZ/6YpE5m11HCogO/SWqjqWHhSnWJViUKAie2g7le/mP2jBgfgcLBhXRp/OBgdB3WGRSJQ+z65k/zEVR0ORZTggiZESKsmCgXQqxwo7gXMTGkGSlS7Pz2W5WA78mEmSY7HqLStwU1UdlXpQIPEJSoFPxQK3tTIFklRAvjh/B/xbku0kVD23bRsWiOXA4CAh/VJZKUKUvrNWsk/n9oH8DhsJVCczR7/+nOZ7JovzkxlMonX7Fuax5OphtDU6SFTClNW7saqOKoOClOlrDasqIIFV/tbgQHUNAtV5NHrCUqAEBZJwQRLAVSUril9gIOMoBDYBPZMdVCL1S4vas3DiULLsKmMi8qWkjkDBsoPvopJIFOT4QJKAmaUgJatrjXoKqMJBXts2zK8wn4Mg7EZxrq6Yt5qtH8rtQOdFoOBm4Gk/evYTDGQ8HbwgSF/0Y3DxtlHWMZ+5x+McWITEeLXz+/kbK9ex7NB7WlCwz7u3a46Gfi+stdeSAnaskOH7oikSZfyCGrZ88ImGEuLdeCvwlF+d+w0GMi6JkLgWuMSvQcbTzqDiAmZNGEQ7g4N4ZPP12Rsr61h2SM1SIEGLxBvXoMDXVbXGWlFAvqVyrPCAhlLmkKih+ok+JTbLzfJD6K33NQYhloJpwE/97DwVYCDjE3fZGuAyPwcba1tDSwp5ZtxAci3xUqyS+fKcHBncZFDgi5bWSFoq0Hxb4V81giAdv8potxWcbhyJ4nr7ivUsPqBy40qg4G+An4C/xtlUgYEsjoToEs9InayMnTrwu7FllrLZ0WsSgCuJZilwtNbWzWkVkG+qxDlQiZAocDBnTH8GWPjklG/TxkiErz2/gQX71aBAgm39u99QIMKlEgyk/c7AMu+8N+UL9dkORnQu4omKAbTPynLedyZ1KFBws+6VRPMpyKQNF/y5ynd1CvAzwPnHRzp86oo+jD6nW/CVStMRyvHB36/dzmOvy6fHeRFLwX8Cfw/If/teUg0GMuAuQKUXdc73CbTW4KguHfnN6P60z3b+frY2tFD8eyQKty2v0zKliYYS5ljiFJhPQSh2VKgmcbcmHDw5vA8VZxsc+L2j5Pjg2+u28+hr4YQCFxaD5jXpCiz2PuB+r1Or7Y3uWsxjo0oNDlpVKr4HhJpvX7GBRfvVwhz/wUuIZFcS41s6e9qdAvd6Z8DZ7ro80ZP8FHriij6MNcuBb9LLlcQfbtzJz3bu9q3NOBoS4+zDnjUqJZaC5rG4sBg099UdWOAldYhDC38erehWzCMjS8k3y4Evggo137lyI/P1siS+BgwDVLDdFxGtkUxR4Bue6VcFDh4f1ptx58rn10oyCggU/Hjzy/xoh/wecV4ECn4NTAZSnpHJJRiIkrI753sZ7pwra3Dgj+QCBXdVb2Le3rf9aTD+Vl7xYoEbFMSvndXQUUDg4MdAjuvuxXLw2LDeTDA4SFh6gYIfbX6ZH+tAgYz7EVdQIJ25BoNmOJgHlCW8SklUHNutmF+N7Ed+tnN4T2LUwanaEIlwd/UWntv7ltagJK+4xAKXyIZWTIF0UuCbwI+04ODRYb250uAg7v0SjcKDO17nu5vl94hKmSl56ICjrnrXAAOZ2xnAXC04GNe9hIdH9DU4iHOXHWuKcG/NFmbvUYOC3wOjDAriXDh7PEgKqMLBr4f2YuJ58vm1EosCYr9/6MUTUKAU2n0GcBvgNKSiFhg0w8Ecz3ksljXy9Znx3Ut4cHhfCnLMchCLsEebInyzpp5Ze9Sc/yWD5xhAsiVaMQXSWQE1OJCv3SMGBzHvnUdf2sXfbdypBQVy7H69aygQcTTBQPo/E3jO4CDmfaryoEDB1Jp6ZuhBwUvAWO9qoooG1qkp4KMC8t0Vn4P/ANr52G5MTRkcxCQTT7+yh6l1O2jUMRUsAW4A3otttP4+pQ0GgbAcPDS8L/lmOWhxZx1pivCt2q3M2K12I3AHMM6gwN8X31pTV0C+vWI5kMh1Bgfqy/HpATz96h6mrstMKAiCxaB5NVR9DuRY4SHzOfjcqylQMK12K9N1oUDyi6tcGg7Yt8qGEz4F9OHAc0gMwi/EoCzvwl37ubNmG8fE69B9kQSEkwC1K19BAoNmy4HcVhjgfi3AHBI/rXoAoOBFQKBAIhtaMQXCqoD8Tb7fy8qoYzkY1osrzz1D/Vw5CAu8ZPcB7ly9lU90oOAF4BpAzTzbvAZBA0XVIEgnrjJaEKQjTU1Mq92maSkwKAjCV9LG4FIBgQO9YwWDAyp3H+SvVtdzRAcKNnk/hNS8u0/e7EEDAxmbBPdepBU+OdODIAUECibY8YHLv0nWV0AU0IWDDL6tsGb/29y8cjMfNKU00vCptpk4V4sfVWCOTIMIBiKe5FZYqpV4aUzXYh7NwNwKATg+MEfDgPyFsmGoKWBw4Fj6tQfe5qbnVaGgImjXsIMKBrI1JCtjlVbK5kyDA7mSKLcPFB0N7Uqi4w+idRdYBZTjHPRm4nmZkVth2zvvc01lnZalQGKyDAVUki+cbvcHGQya4WAZ0FvjFZaUzY+P6U9eVrhTNh+PU6B7JdGgQGODW59BVqA5zkGu60FKnIP/G3w5155/ZqgdEl86/AHXVtXxTkOTa4mlPwnpPhx4VaPz1voMOhjI+DsDzwOXtzaZVPz7iM5F/LaijNystqloXr3NAAQvkjDHEtHQbh+o7wYbQMAUuMnLqOccDuQPw8/KL+aGnueEEg5efu9Drlq6jsM6UHAAGAJIhthAlnQAAxGuE7AKuFRDxSs6FfH02DLahQwOjkUifGO1aphjSYgkuQ8szLHGxrY+00GBGyU5okYQpLDCwd6PPmHc4hc4cLRBY/3fBa4Atml0Hmuf6QIGMp8SoBa4ONbJ+fnc0JIOzBhfTk7bcFgOJEvivau28OybagmRJFXZCEuI5OcutbZCqoCExn1CIyuj/IH4n/KLuT4kloMDHx9h9KK1HNSBAglvLD4F24O+T9MJDETLIqAO+KKGsAOLC3huwiCy0xwOGiNRJldvYs5eteBaYkIbBuzTWEfr0xRIQwWuA54CnGd9CwscvHu0gSHzazikAwVHvOB9gYcCeTfSDQxkzIXAFuACjZe7rKiAeRMHk9U2HaWDpmiUO5/fxLx9alDwBjAY2K+xftanKZDGCvwF8Azg3BtavnY/L7+E63uenZbyfXis8TgU7DtyTGP8Rz1LwQaNzhPpMz3/ukF7QDzZz01k0snWKe3QnsWThtKmTXrJF4lG+asVG1mw/51kJUi0/i6gLAghPxOdgNUzBZQV+BIwC3B+pilfu1+UX8J1aQYHHzc0UTZ3ldbxgTgyyDdPfsymTUmvv2yfllXiir8OnKWhdp/CPCqvuSJtTC4Sz+ury9az6MBhDbmkT7me0xcIRMhPLRGsX1PABwUknr6kq3f+/U43OGiKROkze6WWo6F8duVKYo0Pa+60Cecby+fZiUlNPNpVonH0ys9l+Zdk3YNdJEfYLVV1LD0oDrEqRa7nyHVTNU9HlVlbp6ZA6hSQDHySdM55kT8a/1t+CX8ZcMuBMhTIusiVxDXOF8iHDtMdDEQCccaRyFEqlgOBg6ovDXdv14tx8QMABeJLIAGqzFIQ45rZY6ZAjAqowYGcY/y8/GKu63lOjEN1+1gAoEBuH8gturQsYQADET4PkEA5Kru0T0EeS64ZRlbAfA4ECm6uqqNSz1IgUNDHfArS8ttggw6+AvL9vkrLciD+1z8vCx4cyHdvxHPV7PhYfP6cF+n+z4E5znv2scOwgIFIUgDUa91WKC3KZ+FVQwIDB81QUHXwXeS/FYpcRRSfAvXc4gpzty5NAVcKyDdcLAfyh8j591zg4H/KTsQ5CEKRQ/2RulAgN0dmB0GLZMbgfCMlM9gY6nYA5ErIhTE86/sj5UX5zJk4hOwAXGW8sXIdyw69pwUF4mhYCohvgRVTwBRIrQLqcBAEy4Hcurpqfi3rP/g4tWq33Lr8/poCPKjRud99hg0MRJ+OnsPHJX6LFUt7g4oLmT1hoGoQpBsr61h2SM1SYFAQy0axZ0wB/xW4Gpjrf7Ott3jiWEHvKqNAwZcrX2DFWx+0Plj/nxBDhWTE/AVo/Rbzd1JhBANRqBhYDVzmr1yxtTa4pJCZ4waq5FYIABT0s+OD2PaJPWUKpEABtauMJxwS3cOBOBrevEwspO+nQM5WmxQouF+mHhYokBmHFQxkbpJ4SbIy9mp1aVPwwLBOHXhmbLlTOLipso4qPUuB+RSkYB9Zk6ZAAgpIEKSZWhESXQZBEkvB1JotPLVL5dKTQMEDwHfCBAVhBwOZn6RsXu5dl0vg/UquyvDORTxVMYDcrNRHMJXbB4pxCgQK5EqixSlIbstYbVPALwXEM366Vm4FF+GTJbz7tNp6fvsHFf/mZij4LiD/HaoSZotB80J1ASo9D3nnizeqS0d+M7o/7bNTAweyI7+iCwUSYEqOD1SQ3fmCWoemQPooIFcZJXxyrushyx+W7/W6gLt79UiJWToajfIPL2znkddU8rCJo6H4E4hfQeigIBMsBs3vQ1dgifcHzPU7wuguxTw2utR3OBBivn35RhYdUMt9sNvLGKaC7M4X0jo0BdJPgbGeQ6LEenFevt/7Au7ZSmCFAAAIx0lEQVS+rAd+hniR44N/27iTn+6Uz4/zIlDwMHAP0Oi8d0cdZoLFoFnKbsAi7xqdI3n/1E1F12IeGVVKvk+Wg8bjWRI3Mn+fGhRItMmBdiXR+VayDk2BeBUY792tl+RzzstxOLjcH8uBQMEDG3fyE4OClK5jJoGBCCk5FRYA/VOq6ikar+hWzCMjk4eDhkiUySs3MVcvdfJrXhpRS52ssZGsT1MgfgWuBGZ4geDir51kje/37sHdl12QlOUgGoVfbH+NH9S/muRoEq4uPhu3AJIxMdQl08BAFvMML4ToAI2VHde9hIdH9CU/W1I8xF8aIhGmVG9mzt6346/sT41XvIxhKod7/kzBWjEFMlIB8Tl4GijUmH0yxwoCBb988TW+t+VVrUABAgW3Aipxll2vVyaCQTMcSCAQyZPtvIzvXsJDCcDBsUiEe1dtYfabas7/ko9ilJdC2blu1qEpYAokrYCET/6dFhz8oHcPpiRgOfjli6/zT5tf0YICSXH95UyBAtlhmQoGwYCD4X3Jz4nNcnCsKcJ9q+t59k015/+dQAWwJ+lPkzVgCpgCmgpIhMSndOHgfNrE6JH4u1f2cP+6HVru/+KXdgOgElJRa5NkMhiI5md6yUf0LAcxwMHRpgj319Qzc48aFOwAxhkUaL2m1q8p4LsCunDQpwdTLm0dDgwKfF/3mBrMdDBQtxxM6F7CL4f3oyCn5TgHAgVTa7cyY7fajUCBAvFqVrkbFNMutodMAVMgEQUkfPKTgCSfc17+uU8Pvn7p+bQ9heVgzhv7uKt2m5aloMZLaf2ec2EC0KGBwYlFEIdEVZ+DB4f3peAzxwpHmiJMq93KdIOCALwqNgRTIJQKXAs8oQUHP+jTk8mXfuFzcLBw137uqtnGUfE6dF9qAQkrrWaidT/lT/doYPAnPeRYQeBA5bbCZx0SjzQ1MW3NNqbvMkuB9kti/ZsCIVdAFQ7EcjD5pGOFRbsOcFfNVo7oQME6QBw0MxYKZK8bGHz6jVe9yji+WwkPjeyHpDD96zXbeEYXCiYAu0L+QbTpmQKmwAkFlOHghOWgdt/b3FK9mQ8jKpaCbYDEe8h4B2sDg89/FgQO5msFQRrTrZjOue00jw9eBAQKzKfA/mSYApmlgPgc/FbrtsLtF5zFjDf282FEJf2AQcFJe93AoOUXXyIkLtQKn6z4LTJHQ0XxrWtTIAAKqN5WUJq/RHIdaT+G/qS+gcGpd6IkXlqqlZVR4QV5ybuSaJYCBfGtS1MgQApkEhxIzheJzyIRXa14ChgYnH4rSMrmZUDvkO8YgQLJwpbxZ2shX2ebnikQqwLigCfhkwtirZCGz8mPILEUiMXAih0lxLUHOgErgcvjqpU+D0uY4zEGBemzYDZSU8CRAhMByREQRjiQuPIS3l18C6x8RgGzGMS2JYoBudt6SWyPp81TL3svx5tpM2IbqClgCrhUYIiXrr7IZacp7kty1Q8Htqe4n7Rt3sAg9qUTOFgLXBR7lUA/KblLRwAGBYFeJhucKaCuwCDP30olQqLPs/8QkPkYFJxGWAOD+HadUPMGoGd81QL3tJypXWFZEgO3LjYgUyCoCgwEqrSuMvokysfej6H1PrUX2mYMDOJfWqHmTUCP+KsGosbrwFBgXyBGY4MwBUyBdFFAks2tSFOfg0+8H0Pyw85KKwoYGCS2RQqBeuD8xKqr1ZKrOWJG2682AuvYFDAF0lmBUkASDOWl0SQavdsHMm4rMShgYBCDSKd4JB+QgEDnJt6E05pyNUeI/4DTXq0zU8AUCJsCcn27DmiXBhNr8o4PDAriWCwDgzjEauHRXO8O7FnJNZPy2nJs0CfTE4OkXGXrwBTIHAUuA7YALeeLD44Ogz2n8eCMKA1GYmCQ/CLlAGKil+yMQSxybCCEn9HZwoK4MDYmUyDNFZDr21sDDAcSpGlBmmusMnwDA39kF5OaXP8725/mfGvFoMA3Ka0hU8AUaEGBoMLBVV6+G1u0BBQwMEhAtFNUkWOFncB5/jWZVEsGBUnJZ5VNAVMgRgUu9Zyxg3Ks8JfArBjHbo+1oICBgb/bQhwSxbR2gb/Nxt2aOBjK8cHBuGtaBVPAFDAF4lcgCHAQBb4OPBz/8K3GyQoYGPi/H+Qq40bgQv+bjqlFsRSIo6FBQUxy2UOmgCngkwKacCBQMBl4yKe5ZHQzBgapWf6Onifsxalp/pStyu2DvgYFjlW37kwBU6BZAbmtIAHgxCnbVREo+Gfg+646DHs/BgapW+ESYBUgL4qLIlDQz+IUuJDa+jAFTIHTKCDHmC84CoIUAX4IfA8QQLDigwIGBj6IeJomOgPLvfP+VPZkloJUqmttmwKmQLwKyI8UCSrUPt6KcTwvIPDvwLcNCuJQLYZHDQxiECnJR7p4yUfk3D8VRbIjyktocQpSoa61aQqYAokq0B9YmaLcCgIFvwTuBcRqYMVHBQwMfBTzNE119dKWyvm/n2WXF+bYHA39VNXaMgVMAb8UkDDsSwA5WvWrNEPBfYCEPLbiswIGBj4LeprmugGLvV/3fvQq0RYlFarlPvBDTWvDFDAFUqWA+Fk9D4j11I/yFHCrQYEfUrbchoFB6rRtqWWBg0WAZChLpkjq5CGWJTEZCa2uKWAKOFTgcs/fSqynyZSngduAY8k0YnVPr4CBgfsd0t2LyjU0wa63AeMAcTi0YgqYAqZAuiggtxUWAn+WwIDl+OBJ4E7gaAL1rUocChgYxCGWj49KEKT/Br4KtI2xXXkxngNuB96LsY49ZgqYAqZAkBSQkPHTgfI4BiXWgX8BHgAa46hnjyaogIFBgsL5UE3iio8GvusdC5wqzrh43Ep6U7mrK2BgzjY+iG9NmAKmgJoCEjr+eu/b94XT/DgSIBALg0CBBE2yOAWOlszAwJHQp+lGIoRJhMTxgIQUPcN7USS0sSRlEofF7Xampr9QNgJTwBTwVQGJcSBXGuXbJ5YE+fZ94jlUbwAqvZT29mPIV9lbb+z/AaqFTkkACyzZAAAAAElFTkSuQmCC" vertex="1" parent="1">
                    <mxGeometry x="220" y="530" width="47.81" height="48" as="geometry"/>
                </mxCell>
                <mxCell id="60" value="GAME ID : A2B2" style="text;html=1;strokeColor=none;fillColor=none;align=center;verticalAlign=middle;whiteSpace=wrap;rounded=0;" vertex="1" parent="1">
                    <mxGeometry x="110" y="450" width="130" height="30" as="geometry"/>
                </mxCell>
            </root>
        </mxGraphModel>
    </diagram>
</mxfile>